<svg width="3536" height="147" xmlns="http://www.w3.org/2000/svg" xmlns:xlink="http://www.w3.org/1999/xlink" xml:space="preserve" overflow="hidden"><defs><clipPath id="clip0"><rect x="107" y="653" width="3536" height="147"/></clipPath></defs><g clip-path="url(#clip0)" transform="translate(-107 -653)"><path d="M1153.2 653.203C1171.02 652.275 1179.22 654.568 1195.63 659.155L1209.41 664.586 1232.49 671.665 1243.55 675.097C1260.81 680.009 1274.01 679.618 1293.28 678.446 1346.96 675.224 1376.79 678.254 1420.7 696.167 1446.6 705.69 1468.39 704.412 1498.64 702.721L1511.74 702.064 1567.07 699.169 1607.53 697.105 1620.1 696.402C1641.48 695.332 1658.74 695.18 1679.01 699.26 1691.03 700.486 1686.34 701.477 1692.23 703.76 1698.07 705.195 1707.96 710.89 1714.31 712.958L1730.34 716.173C1749.15 719.4 1765.78 719.533 1785.53 718.475L1795.59 717.995C1824.05 716.31 1850.64 712.038 1877.86 706.337L1907.36 702.756 1907.36 702.282 1911.27 702.282 1915.94 701.715C1924.72 702.823 1935.2 708.851 1963.94 708.929 2004.01 712.105 2050.24 705.433 2088.38 702.18 2102.2 701.009 2114.08 700.242 2124.84 700.039 2157.11 699.431 2179.29 703.899 2213.23 717.746 2238.31 727.486 2259.75 730.181 2290.19 726.289 2312.24 722.856 2334.17 719.154 2356.05 715.293 2395.22 708.382 2432.92 704.827 2473.24 702.697L2488.6 701.706C2523.13 699.924 2546.59 702.217 2576.3 711.703L2589.29 715.615 2609.62 722.341C2631.75 727.895 2650.98 726.286 2674.41 722.539L2690.8 720.017 2699.4 718.675C2745.38 711.569 2790.44 705.772 2837.57 703.744L2850 703.198C2882.81 702.113 2914.14 703.551 2944.58 710.176 2961.87 712.971 2960.52 720.08 2972.75 722.153 2995 726.375 2994.71 723.894 3018.01 722.61L3027.91 722.153C3047.77 721.154 3067.07 719.351 3086.73 717.057 3134.02 711.905 3181.56 707.664 3222.51 722.989L3232.5 726.7C3238.52 729.023 3244.48 731.408 3250.35 733.879 3279.55 744.884 3329.65 736.471 3362.27 732.121L3393.89 727.436 3410.86 724.909C3442.2 720.205 3473.47 715.326 3504.42 709.794L3537.17 702.994 3543.9 723.741C3561.54 731.391 3626.48 736.188 3643 748.898L3643 800 3638.29 800 107 800 107 748.898 171.96 748.898C182.792 748.895 128.257 749.101 171.989 748.881 215.722 748.661 201.099 741.448 217.323 738.716L226.565 737.144 256.97 732.06 278.681 728.411 337.241 718.681 373.913 712.606 523.151 688.473 570.964 680.822 626.527 672.103 646.878 668.859C704.46 659.425 704.46 659.425 729.531 667.736 735.239 670.234 740.836 672.831 746.237 675.555L757.576 680.262 766.401 684.203C800.692 698.195 837.891 696.022 878.801 691.325L899.865 688.628 911.763 687.114C938.853 683.595 965.801 679.705 992.726 675.68L1002.89 674.17 1053.11 666.583C1107.96 658.281 1135.39 654.131 1153.2 653.203Z" fill="#E4CB15" fill-rule="evenodd"/></g></svg>