<svg width="899" height="899" xmlns="http://www.w3.org/2000/svg" xmlns:xlink="http://www.w3.org/1999/xlink" xml:space="preserve" overflow="hidden"><defs><clipPath id="clip0"><rect x="579" y="266" width="899" height="899"/></clipPath></defs><g clip-path="url(#clip0)" transform="translate(-579 -266)"><path d="M1028.48 573.499C950.051 573.51 886.481 637.095 886.492 715.52 886.503 789.044 942.392 849.509 1014 856.77L1028.52 857.501 1028.52 857.501 1028.52 857.501 1028.52 857.501 1043.04 856.766C1114.65 849.484 1170.52 789.003 1170.51 715.479 1170.5 637.055 1106.91 573.488 1028.48 573.499ZM1028.52 483.068C1156.76 483.068 1260.96 587.311 1260.96 715.5 1260.96 843.689 1156.72 947.932 1028.52 947.932 900.325 947.932 796.077 843.689 796.077 715.5 796.077 587.311 900.284 483.068 1028.52 483.068ZM1261.45 429.087C1292.22 429.109 1317.14 454.064 1317.11 484.825 1317.09 515.585 1292.13 540.504 1261.37 540.481 1230.64 540.459 1205.74 515.554 1205.71 484.825 1205.71 454.095 1226.55 429.087 1261.45 429.087ZM846.751 356.431C748.799 356.454 669.413 435.874 669.435 533.82L669.435 897.139C669.435 897.152 669.435 897.166 669.435 897.18 669.435 995.149 748.859 1074.57 846.832 1074.57L1210.17 1074.57C1308.15 1074.55 1387.58 995.121 1387.61 897.139L1387.56 533.82C1387.54 435.86 1308.13 356.454 1210.17 356.431L846.832 356.431C846.805 356.431 846.778 356.431 846.751 356.431ZM846.832 266 1210.17 266C1358.06 266.068 1477.93 385.935 1478 533.82L1478 897.139C1477.89 1045.01 1358.05 1164.86 1210.17 1165L846.832 1165C698.943 1164.89 579.09 1045.02 579 897.139L579 533.82C579.113 385.954 698.959 266.113 846.832 266Z" fill="#E4CB16" fill-rule="evenodd"/></g></svg>