<svg width="1140" height="828" xmlns="http://www.w3.org/2000/svg" xmlns:xlink="http://www.w3.org/1999/xlink" xml:space="preserve" overflow="hidden"><g transform="translate(-1696 -302)"><path d="M115.525 697.141 98.8035 672.365C93.863 660.696 91.131 647.866 91.131 634.399L91.131 193.6C91.131 139.732 134.843 96.0635 188.764 96.0635L951.235 96.0635C1005.16 96.0635 1048.87 139.732 1048.87 193.6L1048.87 634.399C1048.87 647.866 1046.14 660.696 1041.2 672.365L1024.47 697.141 570 316.391ZM221.721 731.936 570 440.154 918.28 731.936ZM127.133 828 1012.87 828C1083.08 828 1140 771.137 1140 700.993L1140 127.007C1140 56.8629 1083.08 0 1012.87 0L127.133 0C56.9192 0 0 56.8629 0 127.007L0 700.993C0 771.137 56.9192 828 127.133 828Z" fill="#E4CB16" fill-rule="evenodd" transform="matrix(1 0 0 -1 1696 1130)"/></g></svg>