<svg width="1637" height="319" xmlns="http://www.w3.org/2000/svg" xmlns:xlink="http://www.w3.org/1999/xlink" xml:space="preserve" overflow="hidden"><defs><clipPath id="clip0"><rect x="2800" y="1027" width="1637" height="319"/></clipPath></defs><g clip-path="url(#clip0)" transform="translate(-2800 -1027)"><path d="M3710.28 1027.09C3729.84 1026.51 3748.68 1028.49 3766.34 1038.43 3786.4 1049.88 3802.03 1051.62 3824.96 1046.49 3833.16 1044.56 3841.34 1042.7 3849.59 1041.04 3893.34 1034.62 3931.76 1040.62 3968.66 1063.31 4007.42 1087.22 4043.22 1092.1 4089.04 1094.13 4128.09 1095.85 4168.19 1096.61 4198.99 1121.38 4228.32 1145.7 4261.54 1152.31 4299.94 1153.3 4319.77 1153.81 4339.46 1152.92 4357.57 1161.26L4362.31 1163.82C4365.66 1165.42 4368.99 1167.07 4372.28 1168.78 4399.23 1185.45 4418.25 1211.85 4426.06 1241.05L4437 1268.54 4414.32 1308.25C4405.32 1321.34 4395.31 1333.71 4384.82 1344.91L4383.63 1346 4380.66 1345.62 4373.2 1344.8C4365.64 1343.83 4358.08 1342.87 4350.5 1341.99L4342.36 1341.08C4312.26 1337.7 4282.16 1335.38 4251.89 1333.54 4223.04 1331.8 4194.27 1329.67 4165.54 1326.81L4155.04 1325.74C4113.53 1321.73 4078.28 1315.78 4043.74 1292.93 4027.62 1281.7 4012.71 1277.56 3992.98 1275.35 3988 1274.83 3983.03 1274.32 3978.07 1273.74 3969.9 1272.75 3961.72 1271.8 3953.54 1270.9 3948.59 1270.36 3943.65 1269.83 3938.7 1269.28 3923.32 1267.57 3907.95 1265.88 3892.51 1264.63 3881.24 1263.74 3870.02 1262.62 3858.78 1261.47 3841.32 1259.66 3823.89 1257.74 3806.33 1256.85 3799.74 1256.54 3793.17 1256.21 3786.61 1255.64 3760.23 1253.2 3733.9 1251.32 3707.4 1250.35 3705.78 1250.29 3704.2 1250.23 3702.63 1250.17 3669.71 1248.89 3638.62 1248.21 3608.95 1264.17 3575.24 1285.18 3575.24 1285.18 3436.86 1274.65 3432.14 1274.29 3427.41 1273.92 3422.69 1273.56L3401.48 1271.94C3388.05 1270.91 3374.63 1269.89 3361.17 1269.18 3352 1268.7 3342.86 1268.07 3333.71 1267.33 3291.88 1263.97 3230.42 1253.44 3191.15 1272.64 3144.05 1300.43 3077.04 1296.54 3024.29 1289.1L3016.8 1287.88C2991.39 1284.36 2973.9 1279.65 2954.48 1262.91 2942.86 1252.81 2930.45 1247.6 2915.7 1242.41 2899.55 1237.64 2881.26 1239.79 2865.87 1246.7 2860.75 1249.29 2860.75 1249.29 2854.4 1251.19L2849.44 1252.43 2849.81 1256.73 2803.9 1218.8 2800 1183.66C2807.34 1183.18 2814.68 1182.71 2822.02 1182.23 2852.51 1183.46 2875.56 1178.06 2900.34 1161.17 2905.69 1157.27 2910.64 1153.97 2916.63 1150.99L2921.56 1148.79 2921.19 1144.49C2927.85 1140.74 2934.34 1136.91 2940.68 1132.67 2982.26 1104.11 3017.78 1105.61 3067.28 1109.38L3075.01 1109.99C3085.65 1110.84 3096.29 1111.7 3106.92 1112.59 3139.49 1115.4 3196.11 1127.06 3224.92 1107.2 3229.13 1103.88 3229.13 1103.88 3234.45 1100.29 3260.75 1087.96 3290.88 1079.49 3320.19 1084.23 3333.52 1086.82 3347.4 1088.34 3360.25 1083.01 3367.59 1078.56 3367.59 1078.56 3368.57 1070.38L3370.08 1062.67C3379.28 1055.6 3387.4 1053.94 3398.83 1053.03 3401.63 1052.86 3401.63 1052.86 3404.37 1052.69 3411.14 1052.15 3417.88 1051.54 3424.67 1051.49 3439.67 1054.8 3446.29 1059.93 3455.16 1071.48 3465.03 1085.28 3477.1 1092.03 3494.49 1095.46L3499.23 1096.26C3504.6 1097.21 3509.96 1098.08 3515.37 1098.83 3543.11 1102 3584.65 1108.97 3608.65 1092.02 3610.92 1084.63 3610.5 1080.55 3607.64 1073.43 3603.43 1065 3603.43 1065 3595.04 1041.21 3606.08 1036.57 3615.89 1034.59 3627.88 1033.52 3631.14 1033.26 3631.14 1033.26 3634.33 1033.01 3638.92 1032.62 3643.5 1032.23 3648.09 1031.85 3655.26 1031.27 3662.43 1030.7 3669.6 1030.08 3674.3 1029.68 3679.01 1029.28 3683.71 1028.89 3686.01 1028.7 3688.25 1028.52 3690.48 1028.33 3697.15 1027.77 3703.75 1027.29 3710.28 1027.09Z" fill="#E4CB15" fill-rule="evenodd"/></g></svg>