<svg width="1725" height="262" xmlns="http://www.w3.org/2000/svg" xmlns:xlink="http://www.w3.org/1999/xlink" xml:space="preserve" overflow="hidden"><defs><clipPath id="clip0"><rect x="2754" y="562" width="1725" height="262"/></clipPath></defs><g clip-path="url(#clip0)" transform="translate(-2754 -562)"><path d="M3771.1 562.185C3787.33 561.342 3794.8 563.425 3809.75 567.592 3813.9 569.219 3818.04 570.847 3822.31 572.525 3829.28 574.71 3836.29 576.851 3843.33 578.955 3846.66 579.984 3849.98 581.013 3853.41 582.073 3869.13 586.535 3881.16 586.18 3898.72 585.115 3947.62 582.188 3974.8 584.94 4014.8 601.212 4038.4 609.862 4058.25 608.702 4085.81 607.166 4089.74 606.969 4093.68 606.772 4097.74 606.569 4114.55 605.727 4131.35 604.83 4148.15 603.939 4160.44 603.295 4172.72 602.679 4185.01 602.064 4190.68 601.748 4190.68 601.748 4196.46 601.426 4215.94 600.454 4231.66 600.316 4250.13 604.022 4250.2 605.549 4250.27 607.075 4250.35 608.648 4254.25 608.47 4258.15 608.293 4262.17 608.11 4262.24 609.636 4262.31 611.163 4262.38 612.736 4269 614 4275.64 615.237 4282.29 616.465 4287.11 617.429 4291.92 618.392 4296.89 619.385 4314.03 622.316 4329.18 622.437 4347.17 621.476 4351.71 621.26 4351.71 621.26 4356.34 621.04 4382.27 619.509 4406.49 615.629 4431.29 610.45 4443.56 607.96 4454.84 606.393 4465.98 606.252L4479 606.967 4478.63 614.045C4476.3 622.458 4472.96 630.946 4471.33 639.298 4464.81 672.705 4381.33 714.35 4360.25 746.528 4344.44 770.661 4422.02 795.859 4403.04 815.214L4385.38 824 4381.66 822.603C4377.98 821.336 4374.3 820.069 4370.51 818.763 4366.88 817.495 4363.24 816.226 4359.5 814.92 4348.63 811.279 4337.57 807.915 4326.44 804.546 4323.59 803.492 4320.75 802.438 4317.82 801.352 4276.08 787.767 4216.64 797.229 4170.31 801.168 4119.97 805.424 4097.8 803.8 4056.57 787.029 4033.72 778.181 4014.19 775.733 3986.46 779.268 3966.37 782.387 3946.39 785.75 3926.46 789.257 3890.77 795.535 3856.42 798.764 3819.69 800.699 3815.07 800.995 3810.46 801.292 3805.7 801.599 3774.24 803.218 3752.87 801.135 3725.8 792.518 3721.89 791.346 3717.99 790.172 3713.97 788.964 3707.79 786.934 3701.61 784.898 3695.44 782.855 3675.28 777.81 3657.76 779.271 3636.42 782.675 3631.49 783.431 3626.56 784.187 3621.49 784.966 3618.9 785.369 3616.32 785.77 3613.65 786.185 3571.76 792.64 3530.71 797.905 3487.77 799.748 3484.03 799.911 3480.3 800.076 3476.45 800.244 3446.56 801.229 3418.02 799.923 3390.28 793.905 3390.21 792.378 3390.14 790.851 3390.07 789.278 3387.47 789.396 3384.87 789.515 3382.19 789.637 3382.12 788.11 3382.05 786.583 3381.98 785.01 3361.71 781.174 3344.61 781.444 3323.39 782.61 3320.41 782.748 3317.44 782.885 3314.37 783.026 3296.27 783.933 3278.69 785.571 3260.78 787.655 3217.7 792.335 3174.39 796.187 3137.08 782.266 3134.08 781.153 3131.08 780.042 3127.98 778.895 3122.49 776.785 3117.06 774.618 3111.72 772.374 3085.11 762.377 3039.47 770.019 3009.75 773.971 3000.14 775.358 2990.54 776.777 2980.95 778.227 2975.8 778.993 2970.64 779.757 2965.49 780.522 2936.93 784.795 2908.45 789.227 2880.25 794.252L2850.41 800.429 2844.28 781.583C2817.61 761.988 2765.08 775.735 2755.91 751.557 2754.77 748.535 2754.17 744.808 2754.03 740.557 2753.89 736.307 2754.22 731.532 2754.91 726.416L2760.58 702.766 2774.5 703.263C2784.44 702.948 2794.74 701.919 2805.63 700.011 2816.8 696.325 2816.8 696.325 2825.01 692.173 2828.88 691.231 2832.75 690.29 2836.73 689.32 2839.85 684.77 2839.85 684.77 2841.7 679.386 2847.97 665.934 2856.58 657.095 2877.18 649.096 2890.91 644.879 2903.7 642.344 2918.48 639.863 2921.26 639.391 2924.04 638.92 2926.9 638.434 2936.13 636.875 2945.36 635.344 2954.6 633.816 2961.19 632.712 2967.79 631.607 2974.38 630.502 2992.15 627.531 3009.94 624.592 3027.73 621.663 3038.87 619.828 3050 617.987 3061.14 616.145 3106.4 608.671 3151.71 601.36 3197.1 594.223 3211.63 591.938 3226.15 589.62 3240.66 587.273 3257.51 584.552 3274.38 581.919 3291.28 579.353 3297.47 578.4 3303.65 577.419 3309.82 576.406 3362.28 567.837 3362.28 567.837 3385.12 575.386 3390.32 577.655 3395.42 580.014 3400.34 582.489 3403.75 583.9 3407.16 585.31 3410.67 586.764 3414.65 588.536 3414.65 588.536 3418.71 590.344 3449.95 603.054 3483.84 601.081 3521.11 596.814 3527.51 596.015 3533.91 595.197 3540.3 594.364 3543.87 593.91 3547.45 593.457 3551.14 592.989 3575.82 589.792 3600.37 586.259 3624.9 582.602 3627.96 582.15 3631.01 581.697 3634.16 581.231 3649.42 578.972 3664.67 576.684 3679.91 574.339 3729.88 566.798 3754.87 563.028 3771.1 562.185Z" fill="#E4CB15" fill-rule="evenodd"/></g></svg>