<svg width="1659" height="280" xmlns="http://www.w3.org/2000/svg" xmlns:xlink="http://www.w3.org/1999/xlink" xml:space="preserve" overflow="hidden"><defs><clipPath id="clip0"><rect x="2782" y="1549" width="1659" height="280"/></clipPath></defs><g clip-path="url(#clip0)" transform="translate(-2782 -1549)"><path d="M4301.71 1549 4307.62 1549.81C4337.74 1554.37 4369.2 1560.12 4398.11 1567.22L4432.2 1576.95 4434.42 1579.76C4435.83 1582.93 4436.7 1586.47 4437.62 1590.17 4439.93 1609.09 4443.11 1639.48 4432.88 1656.26 4430.01 1659.25 4430.01 1659.25 4423.82 1663.67 4421.87 1665.1 4419.91 1666.52 4417.89 1667.99 4412.91 1670.82 4412.91 1670.82 4408.99 1670.3 4403.89 1678.33 4402.44 1683.75 4403.93 1693.3 4409.83 1702.88 4418.72 1706.7 4428.17 1711.35 4434.59 1715.44 4438.52 1720.36 4441 1728 4439.39 1743.1 4427.18 1752.54 4417.36 1762.15 4403.21 1776.07 4403.21 1776.07 4392.61 1792.97 4365.89 1807.64 4328.2 1811.2 4299.49 1804.2 4289.07 1799.29 4282.41 1791.64 4274.73 1782.9 4262.91 1770.06 4251.18 1766.34 4234.56 1765.81 4221.61 1766.28 4212.77 1771.19 4203.06 1780.53 4200.55 1783.82 4198.11 1787.17 4195.74 1790.58 4187.55 1802.37 4178.41 1807.08 4165.28 1809.92 4159.16 1809.9 4153.08 1809.39 4146.98 1808.95 4144.51 1808.82 4144.51 1808.82 4141.99 1808.68 4131.7 1807.94 4123.68 1806.4 4114.68 1801 4113.22 1797.67 4113.22 1797.67 4111.72 1794.28 4108.37 1786.86 4105.57 1783.9 4098.63 1780.46 4078.04 1773.55 4055.42 1774.49 4034.03 1775.68 4031.51 1775.78 4028.98 1775.88 4026.37 1775.99 3998.5 1777.36 3973.21 1780.62 3951.63 1801.47 3927.73 1824.54 3902.65 1828.72 3871.95 1828.8 3869.49 1828.87 3867.03 1828.93 3864.49 1829 3853.48 1828.98 3842.63 1827.51 3831.73 1826.11 3829.63 1825.88 3827.52 1825.64 3825.35 1825.39 3805.69 1822.87 3790.54 1817.98 3778.05 1801.17 3771.31 1796.28 3762.53 1796.45 3754.55 1795.34 3752.8 1795.06 3751.06 1794.78 3749.26 1794.49 3714.92 1789.69 3679.37 1792.74 3644.79 1794.76 3634.77 1795.34 3624.74 1795.88 3614.72 1796.43 3612.72 1796.54 3610.72 1796.65 3608.66 1796.77 3590.42 1797.77 3572.19 1798.64 3553.95 1799.44 3552.52 1799.51 3551.09 1799.57 3549.61 1799.64 3542.42 1799.96 3535.24 1800.27 3528.05 1800.59 3513.6 1801.22 3499.14 1801.86 3484.69 1802.52 3480.1 1802.72 3475.51 1802.93 3470.92 1803.13 3468.08 1803.25 3465.24 1803.38 3462.4 1803.51 3461.05 1803.57 3459.71 1803.63 3458.32 1803.69 3450.41 1804.06 3442.51 1804.52 3434.61 1805.05 3408.91 1806.65 3408.91 1806.65 3400 1800.3 3398.05 1798.26 3396.17 1796.14 3394.35 1793.96 3388.98 1787.93 3382.54 1783.48 3376.21 1778.68 3371.27 1774.73 3371.27 1774.73 3366.69 1769.5 3359.06 1763.43 3353.28 1763.61 3344.11 1764.25 3342.52 1764.32 3340.92 1764.39 3339.28 1764.46 3334.17 1764.69 3329.08 1765 3323.98 1765.31 3320.63 1765.48 3317.29 1765.63 3313.95 1765.79 3295.7 1766.67 3277.47 1767.9 3259.23 1769.16 3251.46 1769.66 3243.71 1769.99 3235.93 1770.22 3216.9 1770.83 3197.88 1771.68 3178.86 1772.54 3177.27 1772.61 3175.68 1772.68 3174.05 1772.75 3157.47 1773.5 3140.9 1774.29 3124.33 1775.26 3104.41 1776.43 3084.5 1777.13 3064.57 1777.63 3061.51 1777.71 3058.45 1777.79 3055.39 1777.88 3025.15 1778.76 3002.01 1777.56 2976.61 1759.52 2958.08 1747.23 2941.9 1743.87 2920.25 1742.11 2893.86 1739.82 2873.06 1734.81 2851.13 1718.08 2835.61 1707 2819.35 1701.8 2801.26 1697.8 2792.94 1694.92 2787.3 1690.49 2782 1682.98 2784.41 1671.55 2788.63 1662.48 2794.06 1652.3 2795.36 1652.47 2796.65 1652.64 2797.98 1652.82 2798.65 1651.44 2799.33 1650.07 2800.03 1648.65 2803.94 1641.63 2808.4 1635.45 2813.11 1629.01 2814.4 1629.18 2815.69 1629.36 2817.02 1629.53 2818.05 1627.38 2818.05 1627.38 2819.1 1625.19 2832.47 1601.72 2857.23 1583 2877.22 1566.54 2879.13 1564.89 2881.03 1563.23 2882.99 1561.53 2899.71 1550.47 2925.96 1556.59 2943.77 1560.38 2954.54 1563.93 2964.53 1568.05 2973.67 1575.14 2973.48 1576.54 2973.3 1577.93 2973.1 1579.37 2976.37 1580.93 2979.66 1582.43 2982.95 1583.92 2984.78 1584.76 2986.61 1585.61 2988.49 1586.48 3060.85 1610.27 3157.7 1589.94 3232.54 1585.52 3254.33 1584.23 3276.1 1583.14 3297.9 1582.41 3308.64 1582.05 3319.35 1581.5 3330.08 1580.71 3342.28 1579.84 3354.46 1579.27 3366.67 1578.88 3368.34 1578.82 3370.01 1578.76 3371.73 1578.7 3396.3 1578.01 3396.3 1578.01 3404.12 1584.45 3405.59 1586.15 3407.05 1587.85 3408.56 1589.6 3410.23 1591.38 3411.9 1593.17 3413.62 1595.01 3415.22 1596.72 3416.83 1598.44 3418.48 1600.21 3437.42 1620.28 3465.77 1619.19 3491.03 1618.81 3520.89 1618.17 3550.78 1616.63 3580.6 1614.31 3596 1613.12 3611.41 1612.37 3626.83 1611.67 3629.28 1611.55 3631.74 1611.44 3634.27 1611.32 3660.02 1610.17 3685.29 1609.31 3710.81 1612.95 3712.84 1613.2 3714.87 1613.46 3716.96 1613.72 3718.91 1613.99 3720.87 1614.25 3722.88 1614.53 3724.61 1614.76 3726.34 1615 3728.12 1615.24 3736.52 1617.33 3741.24 1620.71 3746.67 1627.84 3760.47 1644.38 3784.11 1646.55 3803.82 1647.96 3818.32 1648.33 3832.8 1645.55 3847.04 1642.48 3847.23 1641.08 3847.41 1639.68 3847.61 1638.25 3848.99 1637.45 3850.36 1636.66 3851.79 1635.85 3857.21 1632.35 3857.58 1631.13 3859.37 1624.75 3861.13 1611.88 3862.45 1602.22 3863.24 1594.25L3863.49 1586.93 3940.83 1584.23 3953.14 1583.58 3953.65 1583.93C3999.7 1602.75 4064.74 1592.08 4113.17 1588.84 4121.42 1588.32 4129.67 1588 4137.93 1587.74 4173.85 1586.57 4209.78 1585.03 4245.67 1582.65 4247.72 1582.52 4249.78 1582.4 4251.9 1582.27 4270.29 1580.97 4289.64 1578.55 4306.8 1570.51 4309.83 1566.63 4309.83 1566.63 4308.87 1561.54 4307.55 1557.63 4305.79 1554.39 4303.7 1551.41Z" fill="#E4CB15" fill-rule="evenodd"/></g></svg>