<svg width="7757" height="1192" xmlns="http://www.w3.org/2000/svg" xmlns:xlink="http://www.w3.org/1999/xlink" xml:space="preserve" overflow="hidden"><defs><clipPath id="clip0"><rect x="-2196" y="354" width="7757" height="1192"/></clipPath></defs><g clip-path="url(#clip0)" transform="translate(2196 -354)"><path d="M3838.53 1471.72C3841.44 1471.72 3844.36 1471.72 3847.27 1471.72 3938.68 1471.72 4012.79 1473.84 4012.81 1476.47 4012.79 1479.09 3938.68 1481.21 3847.27 1481.21 3755.86 1481.21 3681.75 1479.09 3681.73 1476.47 3681.63 1473.94 3750.55 1471.85 3838.53 1471.72ZM4100.84 1471.05C4101.6 1471.04 4102.37 1471.04 4103.13 1471.05 4103.16 1471.05 4103.19 1471.05 4103.21 1471.05 4145.41 1471.05 4179.59 1473.62 4179.54 1476.79 4179.51 1479.96 4145.31 1482.53 4103.13 1482.53 4060.96 1482.53 4026.76 1479.96 4026.72 1476.79 4026.66 1473.69 4059.5 1471.14 4100.84 1471.05ZM5279.19 1459.24C5279.56 1459.24 5279.94 1459.24 5280.31 1459.24 5334.81 1459.24 5378.99 1466.09 5379 1474.54 5378.99 1483 5334.81 1489.85 5280.31 1489.85 5225.81 1489.85 5181.62 1483 5181.62 1474.54 5181.61 1466.16 5225.12 1459.33 5279.19 1459.24ZM3779.11 1447.03C3787.2 1447.01 3792.26 1448.03 3792.43 1449.72 3792.7 1452.36 3781.1 1455.81 3766.52 1457.41 3766.52 1457.41 3766.52 1457.41 3766.52 1457.41 3751.93 1459.02 3739.88 1458.18 3739.61 1455.53 3739.33 1452.89 3750.93 1449.45 3765.52 1447.84 3770.28 1447.32 3774.97 1447.04 3779.11 1447.03ZM5267.48 1436.99C5269.53 1436.99 5271.58 1436.99 5273.64 1436.99 5344.01 1436.99 5401.08 1440.35 5401.16 1444.51 5401.17 1448.67 5344.07 1452.03 5273.64 1452.03 5273.63 1452.03 5273.62 1452.03 5273.62 1452.03 5203.18 1452.03 5146.09 1448.66 5146.1 1444.51 5146.1 1440.49 5199.52 1437.18 5267.48 1436.99ZM3924.07 1436.7C3996.27 1436.7 4063.97 1459.8 4063.97 1468.05 4063.97 1476.29 4021.96 1455.88 3949.76 1455.88 3877.56 1455.88 3798.81 1468.63 3798.81 1460.39 3798.81 1452.15 3851.88 1436.7 3924.07 1436.7ZM4320.39 1382.86C4321.31 1382.86 4322.23 1382.86 4323.15 1382.86 4349.42 1382.86 4370.74 1384.85 4370.78 1387.31 4370.78 1387.31 4370.78 1387.31 4370.78 1387.32 4370.78 1389.78 4349.45 1391.78 4323.15 1391.78 4323.13 1391.78 4323.12 1391.78 4323.11 1391.78 4296.8 1391.78 4275.49 1389.78 4275.51 1387.31 4275.51 1384.95 4295.19 1383 4320.39 1382.86ZM4669.83 1369.61C4670.29 1369.61 4670.75 1369.61 4671.22 1369.61 4702.31 1369.61 4727.51 1371.87 4727.54 1374.66 4727.54 1374.66 4727.54 1374.66 4727.54 1374.66 4727.54 1377.46 4702.32 1379.72 4671.22 1379.72 4671.19 1379.72 4671.16 1379.72 4671.13 1379.72 4640.03 1379.71 4614.84 1377.45 4614.88 1374.66 4614.9 1371.92 4639.28 1369.67 4669.83 1369.61ZM4894.85 1359.13C4895.78 1359.13 4896.71 1359.13 4897.64 1359.13 4976.92 1359.13 5041.18 1363 5041.18 1367.77 5041.18 1372.54 4976.91 1376.41 4897.64 1376.41 4818.37 1376.41 4754.11 1372.54 4754.1 1367.77 4754.09 1363.07 4816.67 1359.23 4894.85 1359.13ZM4179.45 1357.4C4179.93 1357.4 4180.41 1357.4 4180.88 1357.4 4180.9 1357.4 4180.92 1357.4 4180.94 1357.4 4239.47 1357.4 4286.89 1360.33 4286.87 1363.95 4286.87 1363.95 4286.87 1363.95 4286.87 1363.95 4286.86 1367.57 4239.41 1370.5 4180.88 1370.5 4180.87 1370.5 4180.85 1370.5 4180.84 1370.5 4122.31 1370.5 4074.88 1367.56 4074.91 1363.95 4074.88 1360.36 4121.46 1357.45 4179.45 1357.4ZM4543.95 1325.8C4545.88 1325.8 4547.82 1325.8 4549.75 1325.8 4669.86 1325.8 4767.24 1331.14 4767.25 1337.74 4767.24 1344.33 4669.86 1349.67 4549.75 1349.67 4429.64 1349.67 4332.26 1344.33 4332.25 1337.74 4332.22 1331.26 4426.11 1325.97 4543.95 1325.8ZM4148.13 1324.44C4149.46 1324.44 4150.79 1324.44 4152.12 1324.44 4240.1 1324.44 4311.42 1329.36 4311.45 1335.43 4311.45 1335.43 4311.45 1335.44 4311.45 1335.44 4311.45 1341.51 4240.12 1346.44 4152.12 1346.44 4152.09 1346.44 4152.06 1346.44 4152.03 1346.44 4064.03 1346.43 3992.74 1341.51 3992.8 1335.43 3992.8 1329.47 4061.72 1324.59 4148.13 1324.44ZM3839.87 1311.19C3840.05 1311.19 3840.24 1311.19 3840.43 1311.19 3912.35 1311.19 3970.65 1315.95 3970.66 1321.83 3970.66 1327.71 3912.35 1332.48 3840.43 1332.48 3840.43 1332.48 3840.43 1332.48 3840.43 1332.48 3768.5 1332.48 3710.2 1327.71 3710.2 1321.83 3710.2 1315.97 3768.17 1311.21 3839.87 1311.19ZM4592.33 1274.01C4594.44 1274.01 4596.55 1274.01 4598.66 1274.01 4698.77 1274.01 4779.93 1278.58 4779.96 1284.2 4779.93 1289.83 4698.77 1294.39 4598.66 1294.39 4498.55 1294.39 4417.39 1289.83 4417.36 1284.2 4417.33 1278.71 4494.71 1274.21 4592.33 1274.01ZM4927.93 1272.88C4928.97 1272.88 4930.02 1272.88 4931.06 1272.88 5008.51 1272.88 5071.3 1278.18 5071.33 1284.71 5071.33 1284.71 5071.33 1284.72 5071.33 1284.72 5071.33 1291.26 5008.53 1296.55 4931.06 1296.55 4931.03 1296.55 4931.01 1296.55 4930.98 1296.55 4853.51 1296.55 4790.75 1291.25 4790.79 1284.71 4790.8 1278.28 4851.71 1273.03 4927.93 1272.88ZM4822.92 1149.72C4825.57 1149.72 4828.23 1149.72 4830.88 1149.72 4830.89 1149.72 4830.9 1149.72 4830.91 1149.72 4980.16 1149.72 5101.13 1154.5 5101.12 1160.4 5101.12 1160.4 5101.12 1160.4 5101.12 1160.4 5101.12 1166.3 4980.13 1171.08 4830.88 1171.08 4830.87 1171.08 4830.85 1171.08 4830.83 1171.08 4681.58 1171.07 4560.62 1166.29 4560.65 1160.4 4560.57 1154.62 4676.78 1149.89 4822.92 1149.72ZM4882.92 1070.15 4882.92 1070.15C4883.38 1070.15 4883.84 1070.15 4884.3 1070.15 4884.34 1070.15 4884.39 1070.15 4884.43 1070.15 5003.82 1070.15 5100.54 1076.08 5100.47 1083.39 5100.46 1090.7 5003.68 1096.62 4884.3 1096.62 4764.93 1096.62 4668.15 1090.7 4668.13 1083.39 4668.06 1076.11 4764.02 1070.2 4882.92 1070.15ZM4110.5 1016.73 4170.98 1030.99 4279.87 1047.62 4415.07 1026.18 4271.48 1027.52ZM4819.48 991.633C4820.25 991.633 4821.03 991.633 4821.81 991.633 4927.9 991.633 5013.91 997.327 5013.93 1004.35 5013.93 1004.36 5013.93 1004.36 5013.93 1004.36 5013.93 1011.39 4927.91 1017.09 4821.81 1017.08 4821.77 1017.08 4821.73 1017.08 4821.69 1017.08 4715.59 1017.08 4629.63 1011.38 4629.7 1004.35 4629.71 997.388 4714.3 991.718 4819.48 991.633ZM5088.4 954.601C5088.44 954.601 5088.47 954.601 5088.51 954.601 5140.32 954.606 5182.28 957.554 5182.22 961.185 5182.19 964.814 5140.2 967.756 5088.4 967.756 5036.6 967.756 4994.6 964.815 4994.57 961.185 4994.57 961.181 4994.57 961.178 4994.57 961.176 4994.58 957.545 5036.58 954.601 5088.4 954.601ZM4281.96 951.017C4282.03 952.607 4282.16 954.233 4282.35 955.894 4337.11 958.223 4352.08 995.716 4445.61 952.517 4424.39 953.86 4399.21 954.582 4373.41 954.58 4338.91 954.582 4305.89 953.295 4281.96 951.017ZM5135.87 900.678C5135.88 900.678 5135.88 900.678 5135.88 900.678 5184.19 900.678 5223.35 907.921 5223.34 916.852 5223.34 916.852 5223.34 916.854 5223.34 916.854 5223.34 925.786 5184.18 933.029 5135.87 933.029 5135.87 933.029 5135.87 933.029 5135.87 933.029 5087.56 933.027 5048.4 925.786 5048.41 916.852 5048.4 907.919 5087.57 900.678 5135.87 900.678ZM4456.68 883.503 4456.68 883.505C4455.66 896.153 4429.36 907.495 4389.17 912.616 4371.74 919.041 4339.43 923.003 4304.45 923.001 4298.96 923.001 4293.47 922.902 4288.05 922.707 4286.02 926.396 4284.47 930.407 4283.42 934.742 4307.24 932.545 4339.63 931.31 4373.41 931.31 4423.78 931.31 4469.39 934.043 4489.61 938.274L4602.36 928.096 4595.14 924.423C4579.52 925.649 4561.06 926.304 4542.18 926.302 4542.18 926.302 4542.18 926.302 4542.18 926.302 4490.17 926.302 4448 921.43 4448 915.418 4448 915.418 4448 915.417 4448 915.417 4448 909.405 4490.17 904.533 4542.18 904.533 4544.91 904.534 4547.63 904.55 4550.35 904.578L4490.93 887.525C4490.93 887.525 4477.16 885.26 4456.68 883.503ZM4522.88 808.399C4524.21 808.397 4525.54 808.397 4526.87 808.399 4526.88 808.399 4526.89 808.399 4526.91 808.399 4636.47 808.401 4725.27 813.604 4725.25 820.021 4725.25 820.021 4725.25 820.023 4725.25 820.023 4725.25 826.443 4636.44 831.644 4526.87 831.644 4526.86 831.644 4526.84 831.644 4526.83 831.644 4417.27 831.644 4328.47 826.439 4328.49 820.021 4328.45 813.693 4414.86 808.525 4522.88 808.399ZM4759.29 760.796C4759.62 760.796 4759.96 760.796 4760.29 760.796 4760.3 760.796 4760.31 760.796 4760.31 760.796 4869.92 760.798 4958.77 767.842 4958.76 776.527 4958.76 776.527 4958.76 776.527 4958.76 776.529 4958.76 785.214 4869.9 792.256 4760.29 792.256 4760.28 792.256 4760.28 792.256 4760.27 792.256 4650.66 792.256 4561.81 785.212 4561.82 776.527 4561.81 767.871 4650.06 760.841 4759.29 760.796ZM5059.24 729.902C5061.32 729.901 5063.41 729.901 5065.49 729.902 5195.52 729.904 5300.94 736.459 5300.96 744.546 5300.94 752.633 5195.52 759.189 5065.49 759.189 4935.46 759.189 4830.04 752.633 4830.02 744.546 4829.99 736.608 4931.65 730.114 5059.24 729.902ZM4922.39 694.882 4923.59 694.882C4923.6 694.882 4923.6 694.882 4923.61 694.882 4986.99 694.882 5038.36 699.191 5038.35 704.505 5038.35 704.507 5038.35 704.507 5038.35 704.507 5038.35 709.822 4986.97 714.131 4923.59 714.131 4923.58 714.131 4923.58 714.131 4923.57 714.131 4860.19 714.129 4808.82 709.82 4808.83 704.505 4808.81 699.231 4859.47 694.937 4922.39 694.882ZM4644.36 667.562 4644.36 667.567C4672.89 667.568 4696.86 671.057 4700.04 675.671 4710.07 675.534 4720.42 675.467 4730.8 675.469 4730.81 675.469 4730.81 675.469 4730.81 675.469 4796.06 675.469 4848.96 678.182 4848.95 681.53 4848.95 684.878 4796.05 687.592 4730.8 687.592 4699.36 687.591 4669.23 686.945 4647.08 685.801 4646.18 685.803 4645.27 685.803 4644.36 685.801 4613.42 685.801 4588.33 681.721 4588.31 676.686 4588.31 676.684 4588.31 676.684 4588.31 676.682 4588.31 671.645 4613.4 667.562 4644.36 667.562ZM5086.02 662.989C5086.05 662.989 5086.08 662.989 5086.1 662.989 5155.41 662.991 5211.57 666.268 5211.52 670.31 5211.52 670.312 5211.52 670.313 5211.52 670.315 5211.52 674.355 5155.33 677.631 5086.02 677.631 5086 677.631 5085.97 677.631 5085.94 677.631 5016.63 677.629 4960.48 674.35 4960.52 670.31 4960.52 670.308 4960.52 670.307 4960.52 670.305 4960.52 666.265 5016.71 662.989 5086.02 662.989ZM5342.34 611.53 5343.62 611.53C5390.75 611.53 5428.96 615.918 5428.96 621.329 5428.96 626.741 5390.75 631.128 5343.62 631.128 5296.48 631.128 5258.27 626.741 5258.27 621.329 5258.27 615.974 5295.71 611.61 5342.34 611.53ZM5454.55 578.897C5455.26 578.897 5455.97 578.897 5456.69 578.897 5511.89 578.897 5556.65 585.754 5556.68 594.215 5556.68 594.215 5556.68 594.217 5556.68 594.219 5556.68 602.682 5511.91 609.543 5456.69 609.543 5456.68 609.543 5456.67 609.543 5456.67 609.543 5401.44 609.542 5356.68 602.679 5356.69 594.215 5356.71 585.88 5400.18 579.076 5454.55 578.899ZM5098.94 561.246C5098.94 561.246 5098.95 561.246 5098.95 561.246 5126.81 561.247 5149.4 564.783 5149.39 569.144 5149.39 569.144 5149.39 569.146 5149.39 569.146 5149.39 573.507 5126.8 577.042 5098.94 577.04 5098.94 577.04 5098.93 577.04 5098.93 577.04 5071.07 577.04 5048.49 573.505 5048.49 569.144 5048.49 569.144 5048.49 569.142 5048.49 569.142 5048.49 564.781 5071.08 561.246 5098.94 561.246ZM5347.84 556.151C5350.74 556.15 5353.65 556.15 5356.55 556.151 5469.37 556.151 5560.87 559.833 5561 564.376 5561 564.376 5561 564.376 5561 564.377 5561 568.924 5469.46 572.61 5356.55 572.61 5356.54 572.61 5356.52 572.61 5356.51 572.61 5243.6 572.608 5152.08 568.922 5152.11 564.376 5152.14 559.966 5238.44 556.34 5347.84 556.151ZM5267.69 541.465C5269.65 541.463 5271.6 541.463 5273.56 541.465 5347.47 541.465 5407.38 544.048 5407.4 547.234 5407.38 550.419 5347.47 553.003 5273.56 553.003 5199.65 553.003 5139.73 550.419 5139.72 547.234 5139.66 544.144 5196.08 541.6 5267.69 541.465ZM4849.51 500.172C4862.54 500.115 4917.55 506.543 4981.14 515.554 5054.96 526.013 5114.6 536.292 5114.48 538.529 5114.48 538.531 5114.48 538.532 5114.48 538.536 5114.18 540.754 5054.01 534.059 4980.07 523.582 4980.06 523.581 4980.04 523.577 4980.02 523.576 4906.09 513.097 4846.41 502.81 4846.73 500.595 4846.77 500.328 4847.7 500.186 4849.51 500.176ZM4598.59 488.107C4642.75 487.905 4692.53 489.784 4744.01 494.951 4908.72 511.484 5027.57 540.429 5027.13 546.984 5026.7 553.538 4908.14 533.525 4742.44 518.698 4576.74 503.869 4428.6 518.5 4430.27 506.997 4431.42 499.092 4501.42 488.551 4598.59 488.107ZM3992.66 486.262C4033.23 486.188 4086.69 486.864 4142.21 488.153 4262.85 490.951 4360.62 495.838 4360.69 499.071 4360.69 499.071 4360.69 499.071 4360.69 499.073 4360.62 502.305 4262.69 502.654 4141.96 499.853 4021.32 497.055 3923.55 492.168 3923.47 488.936 3923.45 487.315 3948.5 486.348 3992.66 486.264ZM4476.79 444.169C4478.97 444.169 4481.16 444.169 4483.34 444.169 4483.36 444.169 4483.38 444.169 4483.39 444.169 4604.16 444.171 4702.03 446.792 4702 450.025 4702 450.026 4702 450.026 4702 450.026 4702 453.258 4604.1 455.88 4483.34 455.88 4483.33 455.88 4483.31 455.88 4483.29 455.88 4362.53 455.88 4264.65 453.258 4264.68 450.025 4264.6 446.858 4358.57 444.264 4476.79 444.169ZM4056.07 429.071C4056.28 429.071 4056.5 429.071 4056.71 429.071 4056.77 429.071 4056.83 429.071 4056.89 429.071 4188.14 429.075 4294.45 433.753 4294.35 439.52 4294.31 445.287 4187.92 449.96 4056.71 449.96 3925.51 449.958 3819.13 445.287 3819.08 439.52 3818.99 433.762 3925.01 429.087 4056.07 429.071ZM4702.62 421.586C4704.73 421.586 4706.84 421.586 4708.94 421.586 4867.84 421.586 4996.66 425.01 4996.67 429.234 4996.66 433.456 4867.85 436.881 4708.94 436.881 4550.04 436.881 4421.22 433.456 4421.21 429.234 4421.19 425.075 4546.2 421.678 4702.62 421.586ZM3865.72 412.386C3869.06 412.382 3872.41 412.382 3875.75 412.386 3967.97 412.386 4042.76 414.529 4042.86 417.177 4042.75 419.822 3967.96 421.966 3875.75 421.966 3783.54 421.966 3708.76 419.822 3708.64 417.177 3708.58 414.638 3777.44 412.538 3865.72 412.386ZM4514.8 394.839C4538.43 394.822 4563.19 394.999 4588.1 395.363 4714.37 397.193 4816.7 403.308 4816.72 409.029 4816.72 409.029 4816.72 409.03 4816.72 409.032 4816.64 414.754 4714.16 417.908 4587.81 416.079 4587.79 416.079 4587.76 416.077 4587.73 416.077 4461.39 414.246 4359.07 408.124 4359.19 402.401 4359.27 397.961 4421.87 394.919 4514.8 394.841ZM3842.11 377.656C3843.35 377.654 3844.59 377.654 3845.82 377.656 3877.17 377.652 3907.1 378.454 3928.32 379.862 3959.58 378.984 3994.48 378.525 4029.93 378.526 4029.99 378.526 4030.04 378.526 4030.1 378.526 4149.08 378.53 4245.45 383.598 4245.36 389.844 4245.34 393.674 4208.4 397.243 4147.21 399.327 4156.37 399.662 4165.58 400.01 4174.79 400.371 4341.49 406.91 4476.66 416.206 4476.8 421.14 4476.8 421.142 4476.8 421.142 4476.8 421.142 4476.8 426.075 4341.59 424.771 4174.79 418.229 4043.88 413.093 3927.89 406.05 3887.55 400.784 3882.93 401.201 3877.85 401.42 3872.7 401.424 3861.96 401.425 3851.83 400.487 3845.34 398.894 3801.34 402.58 3723.36 404.825 3639.38 404.824 3639.37 404.824 3639.36 404.824 3639.36 404.824 3505.87 404.824 3397.67 399.245 3397.68 392.365 3397.68 392.363 3397.68 392.363 3397.68 392.363 3397.68 385.482 3505.9 379.903 3639.38 379.905 3676.91 379.903 3713.93 380.354 3747.5 381.219 3766.46 379.092 3802.45 377.736 3842.11 377.656ZM790 354 3113.5 354 3113.5 358.012 3146.9 356.538 3146.9 356.448C3178.11 356.88 3205.04 361.046 3217.95 370.745 3246.84 392.443 3319.8 394.789 3351.07 419.789 3372.11 418.359 3399.91 417.561 3428.82 417.56 3484.44 417.561 3531.86 420.468 3540.85 424.424 3552.31 423.261 3569.67 422.583 3588.02 422.581 3588.05 422.581 3588.07 422.581 3588.09 422.581 3621.46 422.585 3648.47 424.783 3648.44 427.492 3648.4 430.198 3621.36 432.39 3588.02 432.39 3562.99 432.39 3540.55 431.138 3531.6 429.239 3514.03 431.931 3477.63 433.722 3436.5 433.923 3452.37 436.63 3467.79 440.781 3482.63 446.687 3488.34 448.225 3494.14 450.331 3499.96 452.573 3516.64 451.365 3540.46 450.675 3565.46 450.675 3614.02 450.675 3653.39 453.227 3653.4 456.376 3653.39 458.705 3631.58 460.797 3598.3 461.666 3608.07 462.71 3613.45 464.045 3613.47 465.426 3613.45 468.091 3593.65 470.405 3565.6 471.019 3580.49 474.133 3596.18 477.381 3609.97 480.275 3611.01 480.343 3612.04 480.095 3613.09 480.185 3614.71 480.308 3616.26 480.585 3617.76 480.936 3644.65 477.978 3699.06 476.114 3758.52 476.112 3845.64 476.112 3916.28 480.051 3916.33 484.912 3916.33 484.914 3916.33 484.915 3916.33 484.917 3916.33 489.779 3845.68 493.722 3758.52 493.722 3728.01 493.72 3698.16 493.226 3672.59 492.298 3686.11 494.603 3696.18 496.085 3698.95 496.198 4032.28 509.213 4369.83 511.183 4705.57 526.256 4826.13 531.668 4937.61 558.562 5041.12 558.562 5044.82 565.747 5046.22 574.857 5045.16 584.796 5067.51 579.749 5119.09 576.473 5176.19 576.475 5254.78 576.475 5318.5 582.591 5318.54 590.14 5318.54 590.142 5318.54 590.142 5318.54 590.144 5318.54 597.695 5254.81 603.816 5176.19 603.816 5107.37 603.816 5048.41 599.087 5036.12 592.585 4917.08 594.95 4821.48 598.975 5032.68 618.699 5032.59 618.841 5032.45 618.976 5032.36 619.11 5036.33 618.61 5040.68 618.35 5045.09 618.35 5048.32 618.354 5051.52 618.496 5054.57 618.773 5054.58 618.773 5054.58 618.773 5054.58 618.773 5070.2 613.379 5100.85 610.006 5134.25 610.006 5164.39 610.005 5192.54 612.756 5209.25 617.338 5212.39 617.15 5215.62 617.055 5218.87 617.055 5218.88 617.055 5218.89 617.055 5218.9 617.055 5240.33 617.06 5257.69 621.131 5257.67 626.148 5257.67 631.162 5240.29 635.227 5218.87 635.229 5216.28 635.229 5213.71 635.168 5211.18 635.048 5194.81 639.947 5165.66 642.936 5134.25 642.934 5102.79 642.934 5073.61 639.938 5057.27 635.027 5053.94 638.615 5039.97 641.185 5023.79 641.186 5016.73 641.186 5009.86 640.694 5004.09 639.775 5000.07 641.332 4995.93 642.544 4991.85 643.326 4866.05 641.162 4900.5 658.871 4956.9 669.734 4938.99 674.546 4918.13 677.156 4894.1 676.642 4826.79 675.205 4760.66 664.976 4692.88 664.976 4660.81 664.976 4629.86 663.729 4600.79 661.815 4564.77 664.083 4511.04 665.398 4454.32 665.399 4454.27 665.399 4454.23 665.399 4454.18 665.399 4349.37 665.396 4264.46 660.993 4264.54 655.568 4264.56 650.229 4346.99 645.866 4450.13 645.748 4432.64 643.371 4418.55 641.425 4408.96 640.501 4333.74 633.25 4244.84 640.536 4158.56 648.67 4183.95 654.021 4209.11 659.809 4232.69 662.923 4256.83 666.11 4306.03 672.016 4359.71 679.184 4385.22 677.568 4418.44 676.673 4452.88 676.675 4529.35 676.675 4591.35 681.003 4591.38 686.344 4591.43 691.131 4541.3 695.201 4473.51 695.913 4497.9 699.973 4520.08 704.113 4538.02 708.231 4562.55 706.589 4599.08 705.551 4638.9 705.364 4638.18 705.074 4637.56 704.786 4637.05 704.498 4595.93 703.702 4569.53 701.962 4569.49 700.044 4569.5 697.339 4621.19 695.145 4684.96 695.145 4748.72 695.145 4800.41 697.339 4800.41 700.044 4800.39 702.02 4772.41 703.801 4729.44 704.563 4731.66 705.265 4733.29 705.974 4734.3 706.669 4773.05 708.072 4796.16 710.373 4796.16 712.828 4796.16 712.83 4796.16 712.832 4796.16 712.833 4796.16 716.976 4731.62 720.334 4652 720.334 4624.55 720.334 4597.68 719.929 4574.53 719.161 4578.8 721.17 4581.55 723.139 4582.23 725.037 4588.62 743.124 4504.73 777.153 4465.77 788.673 4551.28 788.68 4620.5 792.443 4620.39 797.081 4620.38 801.718 4551.05 805.477 4465.52 805.477 4427.28 805.479 4390.39 804.712 4361.95 803.325 4349.65 805.352 4338.95 806.987 4333.88 806.987 4310.52 806.987 4282.58 812.109 4255.16 816.503 4374.16 824.145 4380.69 847.524 4484.59 840.52 4516.34 838.389 4602.22 838.029 4689.04 838.434 4718.17 838.57 4745.47 838.903 4770.88 839.336 4805.34 834.295 4870.83 831.169 4941.94 831.167 5049.96 831.167 5137.52 838.263 5137.52 847.016 5137.58 854.271 5076.85 860.601 4990.08 862.387 4977.52 864.57 4958.48 865.841 4938.33 865.841 4926.24 865.838 4914.39 865.377 4904.05 864.506 4906.53 867.142 4909.61 870.523 4912.56 875.597 4917.27 875.563 4922.01 875.548 4926.76 875.552 4983.34 875.552 5029.24 878.007 5029.31 881.038 5029.31 881.039 5029.31 881.039 5029.31 881.041 5029.31 884.076 4983.39 886.534 4926.76 886.534 4923.6 886.541 4920.43 886.541 4917.26 886.534 4917.8 888.246 4918.26 890.084 4918.67 892.031 4931.41 889.035 4946.36 887.436 4961.64 887.436 4961.65 887.436 4961.65 887.436 4961.65 887.436 5004.6 887.436 5039.41 899.785 5039.41 915.016 5039.41 915.018 5039.41 915.018 5039.41 915.02 5039.4 930.251 5004.59 942.599 4961.64 942.597 4943.62 942.595 4926.16 940.37 4912.25 936.307 4910.53 939.467 4908.67 942.403 4906.69 945.128 4909.25 945.08 4911.83 945.057 4914.4 945.061 4950.69 945.061 4980.11 950.219 4980.12 956.586 4980.11 962.952 4950.69 968.112 4914.4 968.112 4902.89 968.114 4891.57 967.586 4881.59 966.581 4877.57 968.635 4874.28 969.977 4871.59 970.785 4893.8 969.972 4919.03 969.546 4944.7 969.546 5025.06 969.546 5090.21 973.655 5090.24 978.725 5090.24 978.727 5090.24 978.731 5090.24 978.732 5090.24 983.804 5025.08 987.915 4944.7 987.915 4944.67 987.915 4944.63 987.915 4944.59 987.915 4864.22 987.912 4799.11 983.797 4799.17 978.725 4799.17 978.472 4799.34 978.219 4799.67 977.966 4740.45 984.212 4679.36 990.239 4618.36 994.163 4618.38 994.201 4618.91 995.065 4618.91 995.065 4618.91 995.065 4614.54 1006.58 4610.74 1016.6 4615.59 1016.45 4620.49 1016.38 4625.4 1016.37 4625.4 1016.37 4625.4 1016.37 4625.41 1016.37 4679.77 1016.37 4723.83 1025.08 4723.82 1035.82 4723.83 1046.56 4679.76 1055.26 4625.4 1055.26 4615.2 1055.26 4605.07 1054.95 4595.36 1054.33 4593.08 1055.62 4580.12 1062.93 4580.11 1062.93 4580.11 1062.94 4571.56 1065.34 4569.77 1065.64 4555.48 1068.03 4561.27 1066.46 4559.99 1066.46 4558.72 1066.51 4557.51 1066.51 4556 1066.51 4548.98 1066.51 4542.41 1065.99 4535.41 1065.94 4520.83 1065.84 4501.89 1066.01 4497.64 1066.34 4479.01 1067.81 4461.38 1067.45 4443.27 1068.23 4443.28 1068.29 4443.47 1069.22 4443.47 1069.22 4443.47 1069.22 4442.57 1070.11 4442.54 1070.16 4461.55 1070.6 4479.2 1071.86 4493.18 1073.78 4495.28 1073.77 4497.37 1073.77 4499.47 1073.78 4563.17 1073.78 4614.81 1078.44 4614.82 1084.2 4614.81 1089.96 4563.17 1094.63 4499.47 1094.63 4495.65 1094.63 4491.84 1094.62 4488.04 1094.59 4470.92 1096.61 4449.49 1097.72 4427.39 1097.72 4423.31 1097.72 4419.24 1097.68 4415.2 1097.6 4413.13 1099.67 4411.46 1101.27 4409.42 1103.29 4474.61 1100.23 4559.56 1098.53 4647.68 1098.53 4843.17 1098.53 5001.66 1106.73 5001.7 1116.85 5001.66 1122.05 4958.93 1127.01 4884.15 1130.48 5034.05 1130.86 5149 1134.44 5148.77 1138.73 5148.6 1143.29 5018.89 1146.99 4858.94 1146.99 4699 1146.99 4569.29 1143.29 4569.12 1138.73 4569.09 1137.44 4579.66 1136.17 4599.97 1135.02 4512.12 1134.4 4431.95 1132.09 4375.31 1128.56 4361.63 1131.52 4346.6 1134.23 4331.8 1136.69 4349.66 1136 4368.82 1135.64 4388.17 1135.64 4469.3 1135.64 4535.07 1141.74 4535.09 1149.25 4535.09 1149.26 4535.09 1149.26 4535.09 1149.26 4535.09 1156.78 4469.31 1162.88 4388.17 1162.88 4308.01 1162.88 4242.66 1156.92 4241.29 1149.49 4213.25 1153.01 4184.03 1156.5 4154.68 1160.01 4231.69 1167.83 4306.09 1166.2 4377.49 1178.28 4393.73 1181.03 4420.62 1188.65 4436.68 1199.3 4438.28 1199.26 4439.88 1199.23 4441.49 1199.23 4460.11 1199.23 4477.62 1202.49 4488.64 1208.01 4495.48 1207.65 4502.46 1207.47 4509.46 1207.47 4521.35 1207.47 4533.14 1208 4544.26 1209.03 4593.77 1205.28 4655.38 1203.23 4718.89 1203.23 4829.73 1203.23 4930.06 1209.42 4974.51 1218.99 4992.56 1218.09 5012.32 1217.62 5032.34 1217.62 5106.26 1217.62 5166.18 1223.87 5166.18 1231.58 5166.18 1239.29 5106.26 1245.54 5032.34 1245.54 5005.74 1245.54 4979.75 1244.72 4957.66 1243.17 4907.09 1251.05 4816.54 1255.86 4718.89 1255.86 4664.17 1255.86 4610.65 1254.34 4565.01 1251.5 4548.65 1254.24 4529.28 1255.71 4509.46 1255.71 4507.57 1255.71 4505.67 1255.69 4503.79 1255.66 4486.86 1260.82 4456.5 1265.51 4423.74 1268.04 4409.56 1269.13 4395.56 1269.77 4382.81 1269.91 4362.26 1277.56 4340.24 1283.46 4319.66 1291.08 4326.45 1290.99 4333.31 1290.94 4340.18 1290.94 4340.21 1290.94 4340.24 1290.94 4340.26 1290.94 4414.12 1290.95 4473.96 1296.01 4473.92 1302.25 4473.89 1308.49 4414.02 1313.55 4340.18 1313.55 4313.66 1313.55 4287.73 1312.88 4265.69 1311.64 4208.54 1323.29 4152.46 1292.77 4100.79 1287.59 4063.1 1283.81 4009.23 1278.93 3957.25 1275.15 3907.48 1275.3 3857.54 1274.43 3806.4 1275.15 3803.57 1275.47 3800.9 1275.88 3798.13 1276.23 3819.34 1278.25 3841.91 1279.71 3865.55 1279.71 3996.38 1279.71 4102.43 1297.47 4102.43 1304.15 4102.44 1310.84 3972.39 1306.38 3841.56 1306.38 3778.94 1306.38 3726.05 1315.81 3688.51 1319.56 3674.42 1328.81 3659.1 1338.67 3641.91 1347.9 3683.43 1345.84 3725.09 1346.5 3766.76 1348.64 3795.45 1345.34 3834.09 1343.48 3874.34 1343.48 3874.35 1343.48 3874.35 1343.48 3874.36 1343.48 3959.06 1343.48 4027.71 1351.52 4027.7 1361.44 4027.7 1364.54 4020.85 1367.58 4007.82 1370.28 4038.57 1373.26 4069.23 1376 4099.71 1377.86 4180.6 1382.82 4254.88 1394.04 4327.76 1394.04 4413.81 1394.04 4492.68 1372.82 4568.7 1380.83 4634.67 1387.78 4717.03 1376.56 4802.81 1384.76 4847.88 1389.07 4901.54 1380.49 4964.31 1380.49 4968.75 1380.49 4988.59 1379.11 5007.14 1379.59 5014.86 1379.79 5020.08 1377.24 5035.41 1382.92 5046.1 1381.24 5058.13 1380.37 5070.36 1380.36 5102.71 1380.36 5131.1 1386.43 5139.77 1395.2 5154.82 1394.22 5171.89 1393.7 5189.26 1393.7 5244.01 1393.7 5288.4 1398.73 5288.42 1404.93 5288.42 1404.94 5288.42 1404.94 5288.42 1404.94 5288.42 1411.15 5244.03 1416.18 5189.26 1416.18 5166.08 1416.18 5143.64 1415.25 5125.84 1413.57 5113.64 1417.71 5096.09 1420.33 5077.05 1420.83 5077.6 1422.27 5078.1 1423.75 5078.58 1425.26 5085.36 1421.42 5140.13 1418.51 5205.44 1418.51 5275.81 1418.51 5332.88 1421.88 5332.97 1426.03 5332.97 1426.03 5332.97 1426.03 5332.97 1426.03 5332.97 1430.19 5275.88 1433.56 5205.44 1433.56 5141.89 1433.56 5088.04 1430.8 5079.15 1427.08 5079.7 1428.97 5080.16 1430.88 5080.57 1432.82 5114.31 1434.34 5138.75 1441.38 5138.76 1449.59 5138.75 1452.42 5135.82 1455.2 5130.21 1457.68 5146.34 1457.71 5160.3 1466.43 5163.85 1478.69 5175.81 1479.58 5186.04 1483.18 5191.15 1488.3 5192.02 1488.35 5192.89 1488.43 5193.76 1488.53 5203.54 1489.56 5212.68 1493.07 5218.1 1497.88 5221.89 1497.82 5225.71 1497.79 5229.53 1497.79 5229.53 1497.79 5229.54 1497.79 5229.54 1497.79 5274.45 1497.79 5310.86 1502.28 5310.85 1507.83 5310.85 1507.83 5310.85 1507.83 5310.85 1507.83 5310.85 1513.37 5274.45 1517.86 5229.53 1517.86 5223.58 1517.86 5217.65 1517.78 5211.84 1517.63 5206.69 1519.2 5200.32 1519.68 5193.76 1518.98 5189.03 1518.48 5184.37 1517.39 5180.19 1515.8 5170.64 1514.9 5162.83 1513.75 5157.31 1512.43 5151.44 1512.37 5145.68 1511.65 5140.53 1510.33 5137.17 1511.15 5133.67 1511.57 5130.15 1511.57 5111.15 1511.57 5095.71 1499.6 5095.6 1484.79 5087.22 1484.11 5079.61 1482.49 5073.83 1480.13 5068.82 1489.14 5063.02 1493.29 5058.34 1496.47 5081.22 1499.22 5094.85 1503.75 5094.85 1508.58 5094.85 1508.58 5094.85 1508.58 5094.85 1508.58 5094.85 1516.73 5056.77 1523.33 5009.8 1523.33 4999.43 1523.33 4989.14 1523 4979.45 1522.35 4974.66 1522.43 4969.94 1522.47 4964.87 1522.7 4934.45 1524.03 4900.51 1522.71 4866.67 1520.48 4798.99 1516.03 4727.76 1507.61 4712.32 1506.81 4618.08 1501.9 4510.15 1491.84 4396.29 1497.41 4248.79 1504.63 4122.31 1448.49 3991.27 1432.74 3854.86 1416.35 3571.55 1475.57 3472.26 1502.26 3415.13 1517.61 3185.96 1547.09 3066.44 1545.97L3030.45 1543.55 790 1543.55Z" fill="#E4CB16" fill-rule="evenodd"/><path d="M3047.89 1117.72C3050.8 1117.72 3053.72 1117.72 3056.63 1117.72 3148.02 1117.72 3222.11 1119.84 3222.14 1122.47 3222.12 1125.09 3148.02 1127.21 3056.63 1127.21 2965.24 1127.21 2891.15 1125.09 2891.13 1122.47 2891.03 1119.94 2959.93 1117.85 3047.89 1117.72ZM3310.15 1117.05C3310.91 1117.04 3311.67 1117.04 3312.44 1117.05 3312.46 1117.05 3312.49 1117.05 3312.52 1117.05 3354.71 1117.05 3388.88 1119.62 3388.83 1122.79 3388.8 1125.96 3354.6 1128.53 3312.44 1128.53 3270.27 1128.53 3236.08 1125.96 3236.04 1122.79 3235.98 1119.69 3268.82 1117.14 3310.15 1117.05ZM4488.25 1105.24C4488.62 1105.24 4489 1105.24 4489.37 1105.24 4543.86 1105.24 4588.03 1112.09 4588.03 1120.54 4588.03 1129 4543.86 1135.85 4489.37 1135.85 4434.88 1135.85 4390.7 1129 4390.69 1120.54 4390.69 1112.16 4434.19 1105.33 4488.25 1105.24ZM2988.48 1093.03C2996.57 1093.01 3001.63 1094.03 3001.8 1095.72 3002.07 1098.36 2990.48 1101.81 2975.9 1103.41 2975.9 1103.41 2975.89 1103.41 2975.89 1103.41 2961.31 1105.02 2949.27 1104.17 2948.99 1101.53 2948.72 1098.89 2960.31 1095.45 2974.89 1093.84 2979.65 1093.32 2984.35 1093.04 2988.48 1093.03ZM4476.54 1082.99C4478.59 1082.99 4480.64 1082.99 4482.7 1082.99 4553.05 1082.99 4610.11 1086.35 4610.2 1090.51 4610.2 1094.67 4553.12 1098.03 4482.7 1098.03 4482.69 1098.03 4482.68 1098.03 4482.68 1098.03 4412.26 1098.03 4355.17 1094.66 4355.18 1090.51 4355.19 1086.49 4408.59 1083.18 4476.54 1082.99ZM3133.42 1082.7C3205.6 1082.7 3273.28 1105.8 3273.28 1114.05 3273.28 1122.29 3231.28 1101.88 3159.1 1101.88 3086.92 1101.88 3008.18 1114.63 3008.18 1106.39 3008.18 1098.15 3061.24 1082.7 3133.42 1082.7ZM3529.65 1028.86C3530.57 1028.86 3531.49 1028.86 3532.41 1028.86 3558.68 1028.86 3579.99 1030.85 3580.03 1033.31 3580.03 1033.31 3580.03 1033.31 3580.03 1033.32 3580.03 1035.78 3558.71 1037.78 3532.41 1037.78 3532.39 1037.78 3532.38 1037.78 3532.37 1037.78 3506.07 1037.78 3484.76 1035.78 3484.78 1033.31 3484.78 1030.95 3504.46 1029 3529.65 1028.86ZM3879.02 1015.61C3879.48 1015.61 3879.94 1015.61 3880.4 1015.61 3911.49 1015.61 3936.69 1017.87 3936.72 1020.66 3936.72 1020.66 3936.72 1020.66 3936.72 1020.66 3936.72 1023.46 3911.5 1025.72 3880.4 1025.72 3880.37 1025.72 3880.35 1025.72 3880.32 1025.72 3849.22 1025.71 3824.04 1023.45 3824.08 1020.66 3824.1 1017.92 3848.47 1015.67 3879.02 1015.61ZM4103.99 1005.13C4104.92 1005.13 4105.85 1005.13 4106.78 1005.13 4186.04 1005.13 4250.29 1009 4250.29 1013.77 4250.28 1018.54 4186.04 1022.41 4106.78 1022.41 4027.53 1022.41 3963.28 1018.54 3963.27 1013.77 3963.26 1009.07 4025.83 1005.23 4103.99 1005.13ZM3388.74 1003.4C3389.22 1003.4 3389.69 1003.4 3390.17 1003.4 3390.19 1003.4 3390.21 1003.4 3390.23 1003.4 3448.74 1003.4 3496.16 1006.33 3496.14 1009.95 3496.14 1009.95 3496.14 1009.95 3496.14 1009.95 3496.13 1013.57 3448.69 1016.5 3390.17 1016.5 3390.16 1016.5 3390.14 1016.5 3390.13 1016.5 3331.61 1016.5 3284.2 1013.56 3284.22 1009.95 3284.19 1006.36 3330.77 1003.45 3388.74 1003.4ZM3753.16 971.797C3755.1 971.796 3757.03 971.796 3758.96 971.797 3879.05 971.797 3976.41 977.142 3976.42 983.736 3976.4 990.328 3879.05 995.674 3758.96 995.674 3638.87 995.674 3541.52 990.328 3541.51 983.736 3541.48 977.263 3635.35 971.969 3753.16 971.797ZM3357.43 970.44C3358.76 970.438 3360.09 970.438 3361.42 970.44 3449.37 970.44 3520.68 975.361 3520.72 981.433 3520.72 981.435 3520.72 981.437 3520.72 981.44 3520.72 987.512 3449.4 992.437 3361.42 992.437 3361.39 992.437 3361.36 992.437 3361.32 992.437 3273.35 992.433 3202.07 987.505 3202.13 981.433 3202.13 975.467 3271.04 970.589 3357.43 970.44ZM3049.23 957.187C3049.42 957.187 3049.6 957.187 3049.79 957.187 3121.69 957.187 3179.99 961.952 3179.99 967.832 3179.99 973.712 3121.7 978.478 3049.79 978.478 3049.79 978.478 3049.79 978.478 3049.79 978.478 2977.88 978.478 2919.59 973.712 2919.59 967.832 2919.59 961.969 2977.54 957.211 3049.23 957.187ZM3801.54 920.013C3803.64 920.011 3805.75 920.011 3807.86 920.013 3907.95 920.015 3989.09 924.575 3989.12 930.204 3989.09 935.83 3907.95 940.392 3807.86 940.392 3707.78 940.392 3626.63 935.83 3626.6 930.204 3626.57 924.71 3703.93 920.205 3801.54 920.013ZM4137.06 918.883C4138.11 918.883 4139.15 918.883 4140.19 918.883 4217.62 918.883 4280.41 924.178 4280.44 930.711 4280.44 930.715 4280.44 930.717 4280.44 930.72 4280.43 937.255 4217.64 942.553 4140.19 942.553 4140.16 942.553 4140.14 942.553 4140.11 942.553 4062.66 942.549 3999.91 937.248 3999.95 930.711 3999.96 924.28 4060.86 919.026 4137.06 918.883ZM4032.07 795.719C4034.73 795.718 4037.38 795.718 4040.04 795.719 4040.05 795.719 4040.05 795.719 4040.06 795.719 4189.28 795.721 4310.23 800.5 4310.21 806.397 4310.21 806.399 4310.21 806.399 4310.21 806.399 4310.21 812.296 4189.25 817.077 4040.04 817.077 4040.02 817.077 4040 817.077 4039.98 817.077 3890.77 817.075 3769.83 812.294 3769.86 806.397 3769.78 800.621 3885.96 795.889 4032.07 795.719ZM4092.06 716.15 4092.06 716.15C4092.52 716.15 4092.98 716.15 4093.44 716.15 4093.49 716.15 4093.53 716.15 4093.57 716.15 4212.93 716.153 4309.64 722.082 4309.57 729.39 4309.55 736.699 4212.8 742.622 4093.44 742.622 3974.09 742.622 3877.34 736.699 3877.32 729.39 3877.25 722.113 3973.19 716.197 4092.06 716.15ZM3319.81 662.725 3380.27 676.99 3489.13 693.62 3624.31 672.177 3480.75 673.524ZM4028.63 637.633C4029.41 637.633 4030.19 637.633 4030.97 637.633 4137.03 637.633 4223.02 643.327 4223.05 650.353 4223.05 650.357 4223.05 650.358 4223.05 650.362 4223.04 657.388 4137.05 663.086 4030.97 663.084 4030.93 663.084 4030.89 663.084 4030.85 663.084 3924.77 663.08 3838.83 657.379 3838.9 650.353 3838.91 643.388 3923.48 637.718 4028.63 637.633ZM4297.5 600.601C4297.54 600.601 4297.57 600.601 4297.61 600.601 4349.41 600.606 4391.36 603.554 4391.3 607.185 4391.27 610.814 4349.28 613.756 4297.5 613.756 4245.71 613.756 4203.72 610.815 4203.69 607.185 4203.69 607.181 4203.69 607.178 4203.69 607.176 4203.7 603.545 4245.69 600.601 4297.5 600.601ZM3491.22 597.017C3491.3 598.607 3491.43 600.233 3491.61 601.894 3546.37 604.223 3561.33 641.716 3654.85 598.516 3633.63 599.86 3608.45 600.582 3582.66 600.58 3548.17 600.582 3515.15 599.295 3491.22 597.017ZM4344.96 546.678C4344.96 546.678 4344.97 546.678 4344.97 546.678 4393.27 546.678 4432.42 553.921 4432.41 562.852 4432.41 562.852 4432.41 562.854 4432.41 562.854 4432.41 571.786 4393.26 579.029 4344.96 579.029 4344.96 579.029 4344.96 579.029 4344.96 579.029 4296.66 579.027 4257.51 571.786 4257.51 562.852 4257.51 553.919 4296.67 546.678 4344.96 546.678ZM3665.91 529.503 3665.92 529.505C3664.9 542.152 3638.6 553.494 3598.41 558.616 3580.99 565.041 3548.68 569.003 3513.71 569.001 3508.22 569.001 3502.73 568.902 3497.32 568.706 3495.29 572.396 3493.74 576.407 3492.69 580.742 3516.5 578.545 3548.88 577.31 3582.66 577.31 3633.02 577.31 3678.62 580.043 3698.84 584.274L3811.56 574.095 3804.34 570.423C3788.72 571.649 3770.27 572.304 3751.39 572.302 3751.39 572.302 3751.39 572.302 3751.39 572.302 3699.39 572.302 3657.24 567.43 3657.24 561.418 3657.24 561.418 3657.24 561.417 3657.24 561.417 3657.24 555.405 3699.39 550.533 3751.39 550.533 3754.12 550.534 3756.85 550.55 3759.56 550.578L3700.16 533.525C3700.16 533.525 3686.39 531.26 3665.91 529.503ZM3732.1 454.399C3733.43 454.397 3734.76 454.397 3736.09 454.399 3736.1 454.399 3736.11 454.399 3736.12 454.399 3845.66 454.401 3934.45 459.604 3934.42 466.021 3934.42 466.021 3934.42 466.023 3934.42 466.023 3934.43 472.442 3845.63 477.644 3736.09 477.644 3736.08 477.644 3736.06 477.644 3736.05 477.644 3626.51 477.644 3537.72 472.439 3537.75 466.021 3537.71 459.692 3624.1 454.525 3732.1 454.399ZM3968.46 406.796C3968.79 406.796 3969.12 406.796 3969.46 406.796 3969.47 406.796 3969.47 406.796 3969.48 406.796 4079.07 406.798 4167.9 413.842 4167.89 422.527 4167.89 422.527 4167.89 422.527 4167.89 422.529 4167.89 431.214 4079.05 438.256 3969.46 438.256 3969.45 438.256 3969.45 438.256 3969.44 438.256 3859.85 438.256 3771.02 431.212 3771.03 422.527 3771.02 413.871 3859.25 406.841 3968.46 406.796ZM4268.35 375.902C4270.43 375.901 4272.51 375.901 4274.6 375.902 4404.6 375.904 4509.99 382.459 4510.01 390.546 4509.99 398.633 4404.6 405.189 4274.6 405.189 4144.59 405.189 4039.19 398.633 4039.17 390.546 4039.15 382.608 4140.79 376.114 4268.35 375.902ZM4131.52 340.882 4132.72 340.882C4132.73 340.882 4132.74 340.882 4132.75 340.882 4196.11 340.882 4247.47 345.191 4247.46 350.505 4247.46 350.507 4247.46 350.507 4247.46 350.507 4247.46 355.822 4196.09 360.131 4132.72 360.131 4132.72 360.131 4132.71 360.131 4132.7 360.131 4069.33 360.129 4017.97 355.82 4017.99 350.505 4017.97 345.231 4068.61 340.937 4131.52 340.882ZM3853.55 313.562 3853.55 313.567C3882.08 313.568 3906.04 317.057 3909.22 321.671 3919.25 321.534 3929.6 321.467 3939.98 321.468 3939.98 321.468 3939.99 321.468 3939.99 321.468 4005.22 321.468 4058.11 324.182 4058.1 327.53 4058.1 330.878 4005.21 333.592 3939.98 333.592 3908.54 333.591 3878.42 332.945 3856.28 331.801 3855.37 331.803 3854.46 331.803 3853.55 331.801 3822.62 331.801 3797.54 327.721 3797.51 322.686 3797.51 322.684 3797.51 322.684 3797.51 322.682 3797.52 317.645 3822.6 313.562 3853.55 313.562ZM4295.12 308.989C4295.15 308.989 4295.18 308.989 4295.2 308.989 4364.5 308.991 4420.64 312.268 4420.6 316.31 4420.6 316.312 4420.6 316.313 4420.6 316.315 4420.6 320.355 4364.42 323.631 4295.12 323.631 4295.1 323.631 4295.07 323.631 4295.04 323.631 4225.75 323.629 4169.61 320.35 4169.65 316.31 4169.65 316.308 4169.65 316.306 4169.65 316.305 4169.65 312.265 4225.83 308.989 4295.12 308.989ZM4551.38 257.53 4552.66 257.53C4599.78 257.53 4637.98 261.917 4637.99 267.329 4637.98 272.741 4599.78 277.128 4552.66 277.128 4505.54 277.128 4467.34 272.741 4467.33 267.329 4467.33 261.974 4504.76 257.61 4551.38 257.53ZM4663.57 224.897C4664.29 224.897 4665 224.897 4665.71 224.897 4720.9 224.897 4765.65 231.753 4765.68 240.215 4765.68 240.215 4765.68 240.217 4765.68 240.219 4765.68 248.682 4720.92 255.543 4665.71 255.543 4665.7 255.543 4665.69 255.543 4665.69 255.543 4610.47 255.542 4565.72 248.679 4565.73 240.215 4565.75 231.88 4609.21 225.076 4663.57 224.899ZM4308.04 207.246C4308.04 207.246 4308.04 207.246 4308.05 207.246 4335.9 207.247 4358.48 210.783 4358.48 215.144 4358.48 215.144 4358.48 215.146 4358.48 215.146 4358.48 219.507 4335.89 223.042 4308.04 223.04 4308.03 223.04 4308.03 223.04 4308.03 223.04 4280.17 223.04 4257.59 219.505 4257.6 215.144 4257.6 215.144 4257.6 215.142 4257.6 215.142 4257.6 210.781 4280.18 207.246 4308.04 207.246ZM4556.88 202.151C4559.79 202.15 4562.69 202.15 4565.6 202.151 4678.39 202.151 4769.87 205.832 4770 210.376 4770 210.376 4770 210.376 4770 210.377 4770 214.924 4678.48 218.61 4565.6 218.61 4565.58 218.61 4565.57 218.61 4565.55 218.61 4452.66 218.608 4361.17 214.922 4361.19 210.376 4361.22 205.966 4447.5 202.34 4556.88 202.151ZM4476.75 187.465C4478.71 187.463 4480.67 187.463 4482.62 187.465 4556.51 187.465 4616.42 190.048 4616.43 193.234 4616.42 196.419 4556.51 199.003 4482.62 199.003 4408.73 199.003 4348.82 196.419 4348.81 193.234 4348.75 190.144 4405.16 187.6 4476.75 187.465ZM4058.66 146.172C4071.68 146.115 4126.68 152.543 4190.26 161.554 4264.06 172.013 4323.7 182.292 4323.57 184.529 4323.57 184.531 4323.57 184.532 4323.57 184.536 4323.27 186.754 4263.11 180.059 4189.19 169.582 4189.18 169.581 4189.16 169.577 4189.14 169.575 4115.23 159.097 4055.56 148.81 4055.88 146.595 4055.92 146.328 4056.85 146.186 4058.66 146.176ZM3807.79 134.107C3851.94 133.905 3901.72 135.784 3953.18 140.951 4117.85 157.484 4236.68 186.429 4236.25 192.984 4235.82 199.538 4117.28 179.525 3951.61 164.698 3785.95 149.869 3637.84 164.5 3639.51 152.997 3640.65 145.092 3710.64 134.551 3807.79 134.107ZM3201.99 132.262C3242.55 132.188 3296 132.864 3351.51 134.152 3472.12 136.951 3569.88 141.838 3569.94 145.071 3569.94 145.071 3569.94 145.071 3569.94 145.073 3569.87 148.305 3471.96 148.654 3351.25 145.853 3230.64 143.055 3132.89 138.168 3132.82 134.936 3132.8 133.315 3157.84 132.347 3201.99 132.264ZM3686.02 90.1689C3688.2 90.1689 3690.38 90.1689 3692.57 90.1689 3692.58 90.1689 3692.6 90.1689 3692.62 90.1689 3813.36 90.1707 3911.21 92.7923 3911.18 96.0245 3911.18 96.0263 3911.18 96.0263 3911.18 96.0263 3911.18 99.2584 3813.3 101.88 3692.57 101.88 3692.55 101.88 3692.54 101.88 3692.52 101.88 3571.78 101.88 3473.93 99.2584 3473.95 96.0245 3473.87 92.8584 3567.82 90.2642 3686.02 90.1689ZM3265.39 75.0713C3265.6 75.0713 3265.81 75.0713 3266.03 75.0713 3266.09 75.0713 3266.15 75.0713 3266.21 75.0713 3397.42 75.0749 3503.72 79.753 3503.62 85.5201 3503.57 91.2872 3397.21 95.9603 3266.03 95.9603 3134.85 95.9584 3028.5 91.2872 3028.45 85.5201 3028.35 79.7616 3134.35 75.0868 3265.39 75.0713ZM3911.8 67.5857C3913.91 67.5857 3916.01 67.5857 3918.12 67.5857 4076.99 67.5857 4205.78 71.0102 4205.79 75.2344 4205.78 79.4563 4076.99 82.8812 3918.12 82.8812 3759.25 82.8812 3630.46 79.4563 3630.45 75.2344 3630.43 71.0745 3755.41 67.6778 3911.8 67.5857ZM3075.08 58.3855C3078.42 58.3819 3081.76 58.3819 3085.1 58.3855 3177.3 58.3855 3252.08 60.5286 3252.18 63.1765 3252.06 65.8223 3177.29 67.9657 3085.1 67.9657 2992.91 67.9657 2918.15 65.8223 2918.03 63.1765 2917.97 60.6379 2986.81 58.5381 3075.08 58.3855ZM3724.02 40.8394C3747.64 40.8221 3772.39 40.9989 3797.3 41.363 3923.55 43.1925 4025.86 49.3082 4025.88 55.0285 4025.88 55.0285 4025.88 55.0303 4025.88 55.0321 4025.8 60.7541 3923.33 63.9079 3797.02 62.0788 3796.99 62.0788 3796.97 62.077 3796.94 62.077 3670.62 60.246 3568.32 54.1234 3568.44 48.4014 3568.52 43.9608 3631.11 40.9192 3724.02 40.8412ZM3051.47 23.656C3052.71 23.6542 3053.95 23.6542 3055.18 23.656 3086.52 23.6524 3116.44 24.4535 3137.66 25.8615 3168.92 24.9843 3203.81 24.5246 3239.25 24.5264 3239.31 24.5264 3239.36 24.5264 3239.42 24.5264 3358.37 24.53 3454.73 29.5982 3454.64 35.8441 3454.61 39.6742 3417.68 43.2427 3356.5 45.327 3365.67 45.6615 3374.87 46.0101 3384.08 46.3709 3550.74 52.9095 3685.89 62.2054 3686.03 67.1401 3686.03 67.1419 3686.03 67.1419 3686.03 67.1419 3686.03 72.0751 3550.84 70.771 3384.08 64.2287 3253.2 59.0927 3137.24 52.0496 3096.9 46.7837 3092.28 47.2012 3087.2 47.4199 3082.06 47.4235 3071.31 47.425 3061.19 46.4871 3054.7 44.8936 3010.71 48.58 2932.75 50.8253 2848.79 50.8235 2848.78 50.8235 2848.77 50.8235 2848.76 50.8235 2715.3 50.8235 2607.12 45.2454 2607.13 38.365 2607.13 38.3632 2607.13 38.3632 2607.13 38.3632 2607.13 31.4814 2715.33 25.9034 2848.79 25.9048 2886.31 25.9034 2923.32 26.3541 2956.88 27.2194 2975.83 25.0918 3011.82 23.7358 3051.47 23.656ZM0 0 2323.02 0 2323.02 4.01195 2356.4 2.53823 2356.4 2.44802C2387.61 2.8796 2414.54 7.04635 2427.45 16.7446 2456.33 38.4434 2529.27 40.7892 2560.53 65.7894 2581.57 64.359 2609.37 63.5612 2638.27 63.5597 2693.87 63.5612 2741.28 66.4675 2750.27 70.4242 2761.73 69.2608 2779.08 68.5828 2797.44 68.581 2797.46 68.581 2797.48 68.581 2797.5 68.581 2830.86 68.5846 2857.87 70.7833 2857.84 73.4918 2857.8 76.1982 2830.77 78.39 2797.44 78.39 2772.41 78.39 2749.97 77.1382 2741.02 75.2394 2723.46 77.9306 2687.07 79.7219 2645.95 79.9229 2661.81 82.6297 2677.23 86.7805 2692.07 92.6866 2697.77 94.2246 2703.57 96.3312 2709.4 98.5732 2726.07 97.3647 2749.88 96.6747 2774.88 96.6747 2823.43 96.6747 2862.78 99.227 2862.8 102.376 2862.79 104.705 2840.99 106.797 2807.71 107.666 2817.48 108.71 2822.86 110.045 2822.88 111.426 2822.86 114.091 2803.06 116.405 2775.02 117.019 2789.9 120.133 2805.59 123.381 2819.38 126.275 2820.42 126.343 2821.45 126.095 2822.5 126.185 2824.12 126.308 2825.66 126.585 2827.17 126.936 2854.05 123.978 2908.45 122.114 2967.89 122.112 3055 122.112 3125.63 126.051 3125.68 130.912 3125.68 130.913 3125.68 130.915 3125.68 130.917 3125.68 135.779 3055.04 139.722 2967.89 139.722 2937.4 139.72 2907.55 139.226 2881.98 138.298 2895.5 140.603 2905.57 142.085 2908.34 142.198 3241.6 155.213 3579.08 157.183 3914.75 172.256 4035.28 177.668 4146.74 204.561 4250.23 204.561 4253.93 211.747 4255.32 220.857 4254.27 230.796 4276.62 225.749 4328.18 222.473 4385.27 222.475 4463.84 222.475 4527.55 228.591 4527.59 236.14 4527.59 236.142 4527.59 236.142 4527.59 236.144 4527.59 243.695 4463.87 249.816 4385.27 249.816 4316.47 249.816 4257.52 245.087 4245.23 238.585 4126.21 240.95 4030.63 244.975 4241.79 264.699 4241.7 264.841 4241.56 264.976 4241.47 265.11 4245.44 264.61 4249.79 264.35 4254.2 264.35 4257.43 264.354 4260.63 264.496 4263.68 264.773 4263.68 264.773 4263.69 264.773 4263.69 264.773 4279.3 259.379 4309.95 256.006 4343.34 256.006 4373.47 256.005 4401.61 258.756 4418.33 263.337 4421.47 263.15 4424.7 263.055 4427.94 263.055 4427.95 263.055 4427.96 263.055 4427.97 263.055 4449.4 263.06 4466.75 267.131 4466.73 272.148 4466.73 277.162 4449.36 281.227 4427.94 281.228 4425.35 281.228 4422.78 281.168 4420.25 281.048 4403.89 285.947 4374.74 288.936 4343.34 288.934 4311.89 288.934 4282.72 285.938 4266.37 281.027 4263.05 284.615 4249.08 287.185 4232.9 287.186 4225.85 287.186 4218.97 286.694 4213.21 285.775 4209.18 287.332 4205.05 288.544 4200.97 289.326 4075.2 287.162 4109.63 304.871 4166.03 315.734 4148.12 320.546 4127.26 323.155 4103.24 322.642 4035.95 321.205 3969.82 310.976 3902.06 310.976 3870 310.976 3839.06 309.729 3810 307.815 3773.98 310.083 3720.26 311.397 3663.55 311.399 3663.5 311.399 3663.46 311.399 3663.41 311.399 3558.62 311.396 3473.74 306.993 3473.81 301.568 3473.83 296.229 3556.24 291.866 3659.36 291.748 3641.88 289.371 3627.79 287.425 3618.2 286.501 3543 279.25 3454.11 286.536 3367.85 294.67 3393.24 300.021 3418.39 305.809 3441.97 308.923 3466.1 312.11 3515.29 318.016 3568.96 325.184 3594.46 323.568 3627.68 322.673 3662.11 322.675 3738.57 322.675 3800.55 327.003 3800.59 332.344 3800.63 337.131 3750.52 341.201 3682.74 341.913 3707.12 345.972 3729.29 350.113 3747.23 354.231 3771.76 352.589 3808.29 351.551 3848.09 351.364 3847.37 351.074 3846.76 350.786 3846.24 350.498 3805.13 349.702 3778.74 347.961 3778.7 346.044 3778.7 343.339 3830.39 341.145 3894.14 341.145 3957.89 341.145 4009.57 343.339 4009.57 346.044 4009.55 348.02 3981.57 349.801 3938.62 350.563 3940.83 351.265 3942.46 351.974 3943.47 352.669 3982.22 354.072 4005.32 356.373 4005.32 358.828 4005.32 358.83 4005.32 358.831 4005.32 358.833 4005.32 362.976 3940.79 366.334 3861.19 366.334 3833.75 366.334 3806.88 365.929 3783.73 365.16 3788.01 367.17 3790.76 369.138 3791.43 371.037 3797.83 389.124 3713.95 423.153 3675 434.673 3760.49 434.68 3829.7 438.443 3829.59 443.081 3829.58 447.718 3760.26 451.477 3674.75 451.477 3636.52 451.479 3599.64 450.712 3571.2 449.325 3558.91 451.352 3548.21 452.987 3543.13 452.987 3519.79 452.987 3491.85 458.109 3464.44 462.503 3583.41 470.145 3589.93 493.524 3693.81 486.52 3725.56 484.389 3811.42 484.029 3898.23 484.434 3927.35 484.57 3954.64 484.903 3980.05 485.336 4014.5 480.295 4079.98 477.169 4151.07 477.167 4259.06 477.167 4346.61 484.262 4346.61 493.016 4346.66 500.271 4285.95 506.601 4199.2 508.387 4186.65 510.57 4167.6 511.841 4147.46 511.841 4135.38 511.838 4123.52 511.377 4113.19 510.506 4115.66 513.142 4118.74 516.523 4121.7 521.597 4126.41 521.563 4131.15 521.548 4135.89 521.551 4192.46 521.551 4238.35 524.007 4238.42 527.037 4238.42 527.039 4238.42 527.039 4238.42 527.041 4238.42 530.076 4192.52 532.534 4135.89 532.534 4132.73 532.541 4129.56 532.541 4126.4 532.534 4126.93 534.245 4127.39 536.084 4127.8 538.031 4140.54 535.035 4155.48 533.436 4170.77 533.436 4170.77 533.436 4170.78 533.436 4170.78 533.436 4213.71 533.436 4248.52 545.785 4248.52 561.016 4248.52 561.018 4248.52 561.018 4248.52 561.02 4248.51 576.251 4213.7 588.598 4170.77 588.597 4152.75 588.595 4135.29 586.37 4121.38 582.307 4119.67 585.467 4117.81 588.403 4115.83 591.128 4118.39 591.08 4120.96 591.057 4123.54 591.061 4159.82 591.061 4189.23 596.219 4189.25 602.586 4189.23 608.952 4159.82 614.112 4123.54 614.112 4112.03 614.114 4100.71 613.586 4090.73 612.581 4086.71 614.635 4083.42 615.977 4080.73 616.785 4102.94 615.972 4128.16 615.546 4153.83 615.546 4234.17 615.546 4299.3 619.655 4299.34 624.725 4299.34 624.727 4299.34 624.731 4299.34 624.732 4299.34 629.804 4234.19 633.915 4153.83 633.915 4153.79 633.915 4153.76 633.915 4153.72 633.915 4073.36 633.912 4008.27 629.797 4008.33 624.725 4008.33 624.472 4008.5 624.219 4008.83 623.966 3949.62 630.212 3888.54 636.239 3827.55 640.163 3827.58 640.201 3828.1 641.065 3828.1 641.065 3828.1 641.065 3823.74 652.585 3819.94 662.603 3824.79 662.454 3829.69 662.378 3834.6 662.373 3834.6 662.373 3834.6 662.373 3834.6 662.373 3888.95 662.375 3933 671.079 3933 681.818 3933 692.556 3888.95 701.26 3834.6 701.262 3824.4 701.26 3814.27 700.945 3804.57 700.329 3802.29 701.616 3789.32 708.931 3789.32 708.931 3789.31 708.935 3780.77 711.336 3778.98 711.638 3764.69 714.031 3770.48 712.462 3769.2 712.462 3767.93 712.507 3766.72 712.507 3765.21 712.507 3758.19 712.507 3751.63 711.988 3744.62 711.943 3730.05 711.843 3711.11 712.011 3706.86 712.344 3688.23 713.811 3670.61 713.454 3652.5 714.234 3652.52 714.293 3652.71 715.222 3652.71 715.222 3652.71 715.222 3651.81 716.113 3651.78 716.159 3670.78 716.599 3688.42 717.86 3702.41 719.776 3704.5 719.77 3706.6 719.77 3708.69 719.776 3772.38 719.776 3824.01 724.443 3824.02 730.204 3824.01 735.964 3772.38 740.631 3708.69 740.631 3704.88 740.633 3701.06 740.62 3697.26 740.587 3680.15 742.612 3658.73 743.718 3636.62 743.716 3632.55 743.716 3628.48 743.678 3624.44 743.604 3622.37 745.667 3620.7 747.273 3618.66 749.294 3683.84 746.225 3768.77 744.526 3856.87 744.526 4052.32 744.526 4210.78 752.731 4210.82 762.852 4210.78 768.054 4168.05 773.01 4093.3 776.485 4243.16 776.857 4358.08 780.44 4357.86 784.73 4357.68 789.29 4228 792.985 4068.09 792.985 3908.18 792.985 3778.5 789.29 3778.33 784.73 3778.3 783.44 3788.86 782.168 3809.17 781.016 3721.34 780.396 3641.18 778.094 3584.56 774.562 3570.88 777.52 3555.86 780.234 3541.05 782.687 3558.92 781.998 3578.07 781.645 3597.42 781.645 3678.52 781.645 3744.28 787.738 3744.31 795.255 3744.31 795.258 3744.31 795.262 3744.31 795.263 3744.3 802.784 3678.54 808.878 3597.42 808.878 3517.27 808.877 3451.93 802.922 3450.57 795.494 3422.53 799.01 3393.32 802.497 3363.98 806.011 3440.97 813.831 3515.35 812.197 3586.74 824.281 3602.97 827.028 3629.86 834.654 3645.92 845.302 3647.51 845.255 3649.12 845.233 3650.72 845.234 3669.34 845.233 3686.85 848.492 3697.87 854.011 3704.71 853.649 3711.68 853.467 3718.68 853.467 3730.57 853.469 3742.36 854 3753.47 855.031 3802.98 851.281 3864.57 849.235 3928.07 849.231 4038.88 849.233 4139.19 855.42 4183.63 864.994 4201.68 864.093 4221.44 863.625 4241.45 863.625 4315.35 863.625 4375.27 869.874 4375.27 877.583 4375.27 885.292 4315.35 891.542 4241.45 891.542 4214.86 891.545 4188.87 890.719 4166.79 889.174 4116.23 897.052 4025.7 901.864 3928.07 901.862 3873.35 901.86 3819.85 900.341 3774.22 897.496 3757.86 900.241 3738.5 901.709 3718.68 901.709 3716.79 901.707 3714.9 901.694 3713.01 901.664 3696.09 906.817 3665.73 911.511 3632.98 914.038 3618.8 915.134 3604.81 915.772 3592.05 915.905 3571.51 923.555 3549.5 929.465 3528.92 937.077 3535.71 936.988 3542.57 936.943 3549.44 936.941 3549.46 936.941 3549.49 936.941 3549.52 936.941 3623.36 936.947 3683.19 942.01 3683.15 948.25 3683.12 954.491 3623.26 959.547 3549.44 959.547 3522.92 959.549 3497 958.885 3474.96 957.636 3417.83 969.292 3361.76 938.769 3310.09 933.586 3272.41 929.806 3218.56 924.925 3166.58 921.149 3116.82 921.305 3066.9 920.431 3015.77 921.149 3012.94 921.471 3010.27 921.879 3007.5 922.234 3028.71 924.252 3051.27 925.709 3074.91 925.709 3205.71 925.709 3311.74 943.466 3311.74 950.151 3311.74 956.835 3181.72 952.377 3050.92 952.377 2988.31 952.377 2935.44 961.81 2897.91 965.564 2883.82 974.808 2868.49 984.667 2851.31 993.895 2892.83 991.842 2934.48 992.501 2976.14 994.642 3004.82 991.338 3043.45 989.484 3083.69 989.482 3083.7 989.482 3083.71 989.482 3083.72 989.482 3168.4 989.484 3237.03 997.524 3237.02 1007.44 3237.03 1010.54 3230.18 1013.58 3217.14 1016.28 3247.89 1019.26 3278.54 1022 3309.02 1023.86 3389.89 1028.82 3464.16 1040.04 3537.02 1040.04 3623.05 1040.04 3701.91 1018.82 3777.9 1026.83 3843.87 1033.78 3926.2 1022.56 4011.97 1030.76 4057.03 1035.07 4110.67 1026.49 4173.44 1026.49 4177.87 1026.49 4197.71 1025.11 4216.26 1025.59 4223.98 1025.79 4229.19 1023.24 4244.52 1028.92 4255.21 1027.24 4267.24 1026.37 4279.46 1026.36 4311.81 1026.36 4340.19 1032.43 4348.86 1041.2 4363.91 1040.22 4380.97 1039.7 4398.34 1039.7 4453.08 1039.7 4497.45 1044.73 4497.48 1050.93 4497.48 1050.94 4497.48 1050.94 4497.48 1050.94 4497.48 1057.15 4453.09 1062.18 4398.34 1062.18 4375.16 1062.18 4352.73 1061.25 4334.93 1059.57 4322.74 1063.71 4305.19 1066.33 4286.15 1066.83 4286.7 1068.27 4287.2 1069.75 4287.68 1071.26 4294.46 1067.42 4349.21 1064.51 4414.51 1064.51 4484.87 1064.51 4541.92 1067.88 4542.02 1072.03 4542.02 1072.03 4542.02 1072.03 4542.02 1072.03 4542.02 1076.19 4484.94 1079.56 4414.51 1079.56 4350.98 1079.56 4297.14 1076.8 4288.25 1073.08 4288.8 1074.97 4289.27 1076.88 4289.67 1078.82 4323.4 1080.34 4347.84 1087.38 4347.85 1095.59 4347.84 1098.42 4344.91 1101.2 4339.3 1103.68 4355.43 1103.71 4369.39 1112.43 4372.93 1124.69 4384.89 1125.58 4395.12 1129.18 4400.23 1134.3 4401.1 1134.35 4401.97 1134.43 4402.84 1134.53 4412.62 1135.56 4421.75 1139.07 4427.18 1143.88 4430.96 1143.82 4434.78 1143.79 4438.6 1143.79 4438.6 1143.79 4438.61 1143.79 4438.61 1143.79 4483.51 1143.79 4519.91 1148.28 4519.91 1153.83 4519.91 1153.83 4519.91 1153.83 4519.91 1153.83 4519.91 1159.37 4483.5 1163.86 4438.6 1163.86 4432.65 1163.86 4426.72 1163.78 4420.91 1163.63 4415.76 1165.2 4409.4 1165.67 4402.84 1164.98 4398.11 1164.48 4393.45 1163.39 4389.27 1161.8 4379.72 1160.9 4371.91 1159.75 4366.4 1158.43 4360.52 1158.37 4354.77 1157.65 4349.62 1156.33 4346.26 1157.15 4342.76 1157.57 4339.24 1157.57 4320.24 1157.57 4304.81 1145.6 4304.7 1130.79 4296.32 1130.11 4288.71 1128.49 4282.93 1126.13 4277.93 1135.14 4272.13 1139.29 4267.45 1142.47 4290.32 1145.22 4303.95 1149.75 4303.95 1154.58 4303.95 1154.58 4303.95 1154.58 4303.95 1154.58 4303.95 1162.73 4265.88 1169.33 4218.92 1169.33 4208.54 1169.33 4198.26 1169 4188.57 1168.35 4183.78 1168.43 4179.07 1168.47 4174 1168.7 4143.58 1170.03 4109.65 1168.71 4075.82 1166.48 4008.15 1162.03 3936.93 1153.61 3921.5 1152.81 3827.28 1147.9 3719.37 1137.84 3605.54 1143.41 3458.07 1150.63 3331.61 1094.49 3200.6 1078.74 3064.22 1062.35 2780.97 1121.57 2681.7 1148.26 2624.58 1163.61 2395.46 1193.09 2275.96 1191.97L2239.98 1189.55 0 1189.55Z" fill="#E4CB16" fill-rule="evenodd" transform="matrix(-1 0 0 1 2574 354)"/></g></svg>